# Blender 4.1.1
# www.blender.org
mtllib player.mtl
o 球
v 0.000000 0.556804 0.054866
v 0.000000 0.473946 -0.027992
v 0.000000 0.365688 -0.072834
v 0.000000 0.307100 -0.078604
v 0.000000 0.248511 -0.072834
v 0.000000 0.140253 -0.027992
v 0.011430 0.601646 0.164249
v 0.022421 0.584556 0.108995
v 0.032550 0.556804 0.058071
v 0.041429 0.519455 0.013437
v 0.048715 0.473946 -0.023194
v 0.054129 0.422026 -0.050413
v 0.057463 0.365688 -0.067174
v 0.058589 0.307100 -0.072834
v 0.057463 0.248511 -0.067174
v 0.054129 0.192173 -0.050413
v 0.048715 0.140253 -0.023194
v 0.041429 0.094744 0.013437
v 0.032550 0.057395 0.058071
v 0.022421 0.029643 0.108995
v 0.011430 0.012553 0.164249
v 0.022421 0.601646 0.167583
v 0.043980 0.584556 0.115535
v 0.063850 0.556804 0.067566
v 0.081265 0.519455 0.025521
v 0.095558 0.473946 -0.008984
v 0.106178 0.422026 -0.034624
v 0.112718 0.365688 -0.050413
v 0.114926 0.307100 -0.055744
v 0.112718 0.248511 -0.050413
v 0.106178 0.192173 -0.034624
v 0.095558 0.140253 -0.008984
v 0.081265 0.094744 0.025521
v 0.063850 0.057395 0.067566
v 0.043980 0.029643 0.115535
v 0.022421 0.012553 0.167583
v 0.032550 0.601646 0.172998
v 0.063850 0.584556 0.126155
v 0.092695 0.556804 0.082984
v 0.117979 0.519455 0.045145
v 0.138728 0.473946 0.014091
v 0.154146 0.422026 -0.008984
v 0.163641 0.365688 -0.023194
v 0.166847 0.307100 -0.027992
v 0.163641 0.248511 -0.023194
v 0.154146 0.192173 -0.008984
v 0.138728 0.140253 0.014091
v 0.117979 0.094744 0.045145
v 0.092695 0.057395 0.082984
v 0.063850 0.029643 0.126155
v 0.032550 0.012553 0.172998
v 0.041429 0.601646 0.180284
v 0.081265 0.584556 0.140447
v 0.117979 0.556804 0.103734
v 0.150158 0.519455 0.071554
v 0.176567 0.473946 0.045145
v 0.196191 0.422026 0.025521
v 0.208276 0.365688 0.013437
v 0.212356 0.307100 0.009357
v 0.208276 0.248511 0.013437
v 0.196191 0.192173 0.025521
v 0.176567 0.140253 0.045145
v 0.150158 0.094744 0.071554
v 0.117979 0.057395 0.103734
v 0.081265 0.029643 0.140447
v 0.041429 0.012553 0.180284
v 0.048715 0.601646 0.189162
v 0.095558 0.584556 0.157863
v 0.138728 0.556804 0.129017
v 0.176567 0.519455 0.103734
v 0.207621 0.473946 0.082984
v 0.230696 0.422026 0.067566
v 0.244906 0.365688 0.058071
v 0.249704 0.307100 0.054866
v 0.244906 0.248511 0.058071
v 0.230696 0.192173 0.067566
v 0.207621 0.140253 0.082984
v 0.176567 0.094744 0.103734
v 0.138728 0.057395 0.129017
v 0.095558 0.029643 0.157863
v 0.048715 0.012553 0.189162
v 0.000000 0.607416 0.221712
v 0.054129 0.601646 0.199292
v 0.106178 0.584556 0.177732
v 0.154146 0.556804 0.157863
v 0.196191 0.519455 0.140447
v 0.230696 0.473946 0.126155
v 0.256336 0.422026 0.115535
v 0.272125 0.365688 0.108995
v 0.277456 0.307100 0.106786
v 0.272125 0.248511 0.108995
v 0.256336 0.192173 0.115535
v 0.230696 0.140253 0.126155
v 0.196191 0.094744 0.140447
v 0.154146 0.057395 0.157863
v 0.106178 0.029643 0.177732
v 0.054129 0.012553 0.199292
v 0.057463 0.601646 0.210282
v 0.112718 0.584556 0.199292
v 0.163641 0.556804 0.189162
v 0.208276 0.519455 0.180284
v 0.244906 0.473946 0.172998
v 0.272125 0.422026 0.167583
v 0.288886 0.365688 0.164249
v 0.294546 0.307100 0.163124
v 0.288886 0.248511 0.164249
v 0.272125 0.192173 0.167583
v 0.244906 0.140253 0.172998
v 0.208276 0.094744 0.180284
v 0.163641 0.057395 0.189162
v 0.112718 0.029643 0.199292
v 0.057463 0.012553 0.210282
v 0.058589 0.601646 0.221712
v 0.114926 0.584556 0.221712
v 0.166847 0.556804 0.221713
v 0.212356 0.519455 0.221712
v 0.249704 0.473946 0.221713
v 0.277456 0.422026 0.221712
v 0.294546 0.365688 0.221713
v 0.300317 0.307100 0.221713
v 0.294546 0.248511 0.221713
v 0.277456 0.192173 0.221712
v 0.249704 0.140253 0.221713
v 0.212356 0.094744 0.221712
v 0.166847 0.057395 0.221713
v 0.114926 0.029643 0.221712
v 0.058589 0.012553 0.221712
v 0.057463 0.601646 0.233143
v 0.112718 0.584556 0.244133
v 0.163641 0.556804 0.254263
v 0.208276 0.519455 0.263141
v 0.244906 0.473946 0.270427
v 0.272125 0.422026 0.275842
v 0.288886 0.365688 0.279176
v 0.294546 0.307100 0.280301
v 0.288886 0.248511 0.279176
v 0.272125 0.192173 0.275842
v 0.244906 0.140253 0.270427
v 0.208276 0.094744 0.263141
v 0.163641 0.057395 0.254263
v 0.112718 0.029643 0.244133
v 0.057463 0.012553 0.233143
v 0.054129 0.601646 0.244133
v 0.106178 0.584556 0.265693
v 0.154146 0.556804 0.285562
v 0.196191 0.519455 0.302978
v 0.230696 0.473946 0.317270
v 0.256336 0.422026 0.327890
v 0.272125 0.365688 0.334430
v 0.277456 0.307100 0.336639
v 0.272125 0.248511 0.334430
v 0.256336 0.192173 0.327890
v 0.230696 0.140253 0.317270
v 0.196191 0.094744 0.302978
v 0.154146 0.057395 0.285562
v 0.106178 0.029643 0.265693
v 0.054129 0.012553 0.244133
v 0.048715 0.601646 0.254263
v 0.095558 0.584556 0.285562
v 0.138728 0.556804 0.314408
v 0.176567 0.519455 0.339691
v 0.207621 0.473946 0.360441
v 0.230696 0.422026 0.375859
v 0.244906 0.365688 0.385354
v 0.249704 0.307100 0.388559
v 0.244906 0.248511 0.385354
v 0.230696 0.192173 0.375859
v 0.207621 0.140253 0.360441
v 0.176567 0.094744 0.339691
v 0.138728 0.057395 0.314408
v 0.095558 0.029643 0.285562
v 0.048715 0.012553 0.254263
v 0.041429 0.601646 0.263141
v 0.081265 0.584556 0.302978
v 0.117979 0.556804 0.339691
v 0.150158 0.519455 0.355779
v 0.176567 0.473946 0.367782
v 0.196191 0.422026 0.387406
v 0.208275 0.365688 0.399491
v 0.212356 0.307100 0.403571
v 0.208275 0.248511 0.399491
v 0.196191 0.192173 0.387406
v 0.176567 0.140253 0.367782
v 0.150158 0.094744 0.371871
v 0.117979 0.057395 0.339691
v 0.081265 0.029643 0.302978
v 0.041429 0.012553 0.263141
v 0.032550 0.601646 0.270427
v 0.063850 0.584556 0.317270
v 0.092695 0.556804 0.360441
v 0.117979 0.519455 0.382188
v 0.138728 0.473946 0.398836
v 0.154146 0.422026 0.421911
v 0.163641 0.365688 0.436121
v 0.166847 0.307100 0.440919
v 0.163641 0.248511 0.436121
v 0.154146 0.192173 0.421911
v 0.138728 0.140253 0.398836
v 0.117979 0.094744 0.398280
v 0.092695 0.057395 0.360441
v 0.063850 0.029643 0.317270
v 0.032550 0.012553 0.270427
v 0.022421 0.601646 0.275842
v 0.043980 0.584556 0.327890
v 0.063850 0.556804 0.375859
v 0.081265 0.519455 0.401812
v 0.095558 0.473946 0.405820
v 0.106178 0.422026 0.431459
v 0.112718 0.365688 0.447248
v 0.114926 0.307100 0.452580
v 0.112718 0.248511 0.447248
v 0.106178 0.192173 0.447551
v 0.095558 0.140253 0.421911
v 0.081265 0.094744 0.417904
v 0.063850 0.057395 0.375859
v 0.043980 0.029643 0.327890
v 0.022421 0.012553 0.275842
v 0.011430 0.601646 0.279176
v 0.022421 0.584556 0.334430
v 0.032550 0.556804 0.385353
v 0.041429 0.519455 0.413896
v 0.048715 0.473946 0.420029
v 0.054129 0.422026 0.447248
v 0.057463 0.365688 0.464010
v 0.058589 0.307100 0.469669
v 0.057463 0.248511 0.464010
v 0.054129 0.192173 0.463340
v 0.048715 0.140253 0.436121
v 0.041429 0.094744 0.429988
v 0.032550 0.057395 0.385353
v 0.022421 0.029643 0.334430
v 0.011430 0.012553 0.279176
v -0.000000 0.601646 0.280301
v -0.000000 0.584556 0.336639
v -0.000000 0.556804 0.388559
v -0.000000 0.519455 0.417977
v -0.000000 0.473946 0.424827
v 0.000000 0.422026 0.452580
v -0.000000 0.365688 0.469669
v -0.000000 0.307100 0.475440
v -0.000000 0.248511 0.469669
v 0.000000 0.192173 0.468671
v -0.000000 0.140253 0.440919
v -0.000000 0.094744 0.434068
v -0.000000 0.057395 0.388559
v -0.000000 0.029643 0.336639
v -0.000000 0.012553 0.280301
v -0.011430 0.601646 0.279176
v -0.022421 0.584556 0.334430
v -0.032550 0.556804 0.385353
v -0.041429 0.519455 0.413896
v -0.048715 0.473946 0.420029
v -0.054129 0.422026 0.447248
v -0.057463 0.365688 0.464010
v -0.058589 0.307100 0.469669
v -0.057463 0.248511 0.464010
v -0.054129 0.192173 0.463340
v -0.048715 0.140253 0.436121
v -0.041429 0.094744 0.429988
v -0.032550 0.057395 0.385353
v -0.022421 0.029643 0.334430
v -0.011430 0.012553 0.279176
v -0.022421 0.601646 0.275842
v -0.043980 0.584556 0.327890
v -0.063850 0.556804 0.375859
v -0.081265 0.519455 0.401812
v -0.095558 0.473946 0.405820
v -0.106178 0.422026 0.431459
v -0.112718 0.365688 0.447248
v -0.114926 0.307100 0.452579
v -0.112718 0.248511 0.447248
v -0.106178 0.192173 0.447551
v -0.095558 0.140253 0.421911
v -0.081265 0.094744 0.417904
v -0.063850 0.057395 0.375859
v -0.043980 0.029643 0.327890
v -0.022421 0.012553 0.275842
v -0.032550 0.601646 0.270427
v -0.063850 0.584556 0.317270
v -0.092695 0.556804 0.360441
v -0.117979 0.519455 0.382188
v -0.138728 0.473946 0.398836
v -0.154146 0.422026 0.421911
v -0.163641 0.365688 0.436121
v -0.166847 0.307100 0.440919
v -0.163641 0.248511 0.436121
v -0.154146 0.192173 0.421911
v -0.138728 0.140253 0.398836
v -0.117979 0.094744 0.398280
v -0.092695 0.057395 0.360441
v -0.063850 0.029643 0.317270
v -0.032550 0.012553 0.270427
v -0.041429 0.601646 0.263141
v -0.081265 0.584556 0.302978
v -0.117979 0.556804 0.339691
v -0.150158 0.519455 0.355779
v -0.176567 0.473946 0.367782
v -0.196191 0.422026 0.387406
v -0.208275 0.365688 0.399490
v -0.212356 0.307100 0.403571
v -0.208275 0.248511 0.399490
v -0.196191 0.192173 0.387406
v -0.176567 0.140253 0.367782
v -0.150158 0.094744 0.371871
v -0.117979 0.057395 0.339691
v -0.081265 0.029643 0.302978
v -0.041429 0.012553 0.263141
v 0.000000 0.006783 0.221712
v -0.048715 0.601646 0.254263
v -0.095558 0.584556 0.285562
v -0.138728 0.556804 0.314408
v -0.176567 0.519455 0.339691
v -0.207621 0.473946 0.360441
v -0.230696 0.422026 0.375859
v -0.244906 0.365688 0.385353
v -0.249704 0.307100 0.388559
v -0.244906 0.248511 0.385353
v -0.230696 0.192173 0.375859
v -0.207621 0.140253 0.360441
v -0.176567 0.094744 0.339691
v -0.138728 0.057395 0.314408
v -0.095558 0.029643 0.285562
v -0.048715 0.012553 0.254263
v -0.054129 0.601646 0.244133
v -0.106178 0.584556 0.265693
v -0.154146 0.556804 0.285562
v -0.196191 0.519455 0.302978
v -0.230696 0.473946 0.317270
v -0.256336 0.422026 0.327890
v -0.272125 0.365688 0.334430
v -0.277456 0.307100 0.336638
v -0.272125 0.248511 0.334430
v -0.256336 0.192173 0.327890
v -0.230696 0.140253 0.317270
v -0.196191 0.094744 0.302978
v -0.154146 0.057395 0.285562
v -0.106178 0.029643 0.265693
v -0.054129 0.012553 0.244133
v -0.057463 0.601646 0.233143
v -0.112718 0.584556 0.244133
v -0.163641 0.556804 0.254263
v -0.208275 0.519455 0.263141
v -0.244906 0.473946 0.270427
v -0.272125 0.422026 0.275842
v -0.288886 0.365688 0.279175
v -0.294546 0.307100 0.280301
v -0.288886 0.248511 0.279175
v -0.272125 0.192173 0.275842
v -0.244906 0.140253 0.270427
v -0.208275 0.094744 0.263141
v -0.163641 0.057395 0.254263
v -0.112718 0.029643 0.244133
v -0.057463 0.012553 0.233143
v -0.058589 0.601646 0.221712
v -0.114926 0.584556 0.221712
v -0.166847 0.556804 0.221712
v -0.212356 0.519455 0.221712
v -0.249704 0.473946 0.221712
v -0.277456 0.422026 0.221712
v -0.294546 0.365688 0.221712
v -0.300316 0.307100 0.221712
v -0.294546 0.248511 0.221712
v -0.277456 0.192173 0.221712
v -0.249704 0.140253 0.221712
v -0.212356 0.094744 0.221712
v -0.166847 0.057395 0.221712
v -0.114926 0.029643 0.221712
v -0.058589 0.012553 0.221712
v -0.057463 0.601646 0.210282
v -0.112718 0.584556 0.199292
v -0.163641 0.556804 0.189162
v -0.208275 0.519455 0.180284
v -0.244906 0.473946 0.172998
v -0.272125 0.422026 0.167583
v -0.288886 0.365688 0.164249
v -0.294546 0.307100 0.163124
v -0.288886 0.248511 0.164249
v -0.272125 0.192173 0.167583
v -0.244906 0.140253 0.172998
v -0.208275 0.094744 0.180284
v -0.163641 0.057395 0.189162
v -0.112718 0.029643 0.199292
v -0.057463 0.012553 0.210282
v -0.054129 0.601646 0.199292
v -0.106178 0.584556 0.177732
v -0.154146 0.556804 0.157863
v -0.196191 0.519455 0.140447
v -0.230696 0.473946 0.126155
v -0.256336 0.422026 0.115535
v -0.272125 0.365688 0.108995
v -0.277456 0.307100 0.106786
v -0.272125 0.248511 0.108995
v -0.256336 0.192173 0.115535
v -0.230696 0.140253 0.126155
v -0.196191 0.094744 0.140447
v -0.154146 0.057395 0.157863
v -0.106178 0.029643 0.177732
v -0.054129 0.012553 0.199292
v -0.048715 0.601646 0.189162
v -0.095558 0.584556 0.157863
v -0.138728 0.556804 0.129017
v -0.176567 0.519455 0.103734
v -0.207621 0.473946 0.082984
v -0.230696 0.422026 0.067566
v -0.244906 0.365688 0.058071
v -0.249704 0.307100 0.054866
v -0.244906 0.248511 0.058071
v -0.230696 0.192173 0.067566
v -0.207621 0.140253 0.082984
v -0.176567 0.094744 0.103734
v -0.138728 0.057395 0.129017
v -0.095558 0.029643 0.157863
v -0.048715 0.012553 0.189162
v -0.041429 0.601646 0.180284
v -0.081265 0.584556 0.140447
v -0.117978 0.556804 0.103734
v -0.150158 0.519455 0.071554
v -0.176567 0.473946 0.045145
v -0.196191 0.422026 0.025521
v -0.208275 0.365688 0.013437
v -0.212356 0.307100 0.009357
v -0.208275 0.248511 0.013437
v -0.196191 0.192173 0.025521
v -0.176567 0.140253 0.045145
v -0.150158 0.094744 0.071554
v -0.117978 0.057395 0.103734
v -0.081265 0.029643 0.140447
v -0.041429 0.012553 0.180284
v -0.032550 0.601646 0.172998
v -0.063850 0.584556 0.126155
v -0.092695 0.556804 0.082984
v -0.117979 0.519455 0.045145
v -0.138728 0.473946 0.014091
v -0.154146 0.422026 -0.008984
v -0.163641 0.365688 -0.023194
v -0.166847 0.307100 -0.027991
v -0.163641 0.248511 -0.023194
v -0.154146 0.192173 -0.008984
v -0.138728 0.140253 0.014091
v -0.117979 0.094744 0.045145
v -0.092695 0.057395 0.082984
v -0.063850 0.029643 0.126155
v -0.032550 0.012553 0.172998
v -0.022421 0.601646 0.167584
v -0.043980 0.584556 0.115535
v -0.063849 0.556804 0.067566
v -0.081265 0.519455 0.025521
v -0.095558 0.473946 -0.008984
v -0.106178 0.422026 -0.034624
v -0.112718 0.365688 -0.050412
v -0.114926 0.307100 -0.055744
v -0.112718 0.248511 -0.050412
v -0.106178 0.192173 -0.034624
v -0.095558 0.140253 -0.008984
v -0.081265 0.094744 0.025521
v -0.063849 0.057395 0.067566
v -0.043980 0.029643 0.115535
v -0.022421 0.012553 0.167584
v -0.011430 0.601646 0.164249
v -0.022421 0.584556 0.108995
v -0.032550 0.556804 0.058072
v -0.041429 0.519455 0.013437
v -0.048715 0.473946 -0.023193
v -0.054129 0.422026 -0.050412
v -0.057463 0.365688 -0.067174
v -0.058589 0.307100 -0.072833
v -0.057463 0.248511 -0.067174
v -0.054129 0.192173 -0.050412
v -0.048715 0.140253 -0.023193
v -0.041429 0.094744 0.013437
v -0.032550 0.057395 0.058072
v -0.022421 0.029643 0.108995
v -0.011430 0.012553 0.164249
v 0.000000 0.601646 0.163124
v 0.000000 0.584556 0.106786
v 0.000000 0.519455 0.009357
v 0.000000 0.422026 -0.055744
v 0.000000 0.192173 -0.055744
v 0.000000 0.094744 0.009357
v 0.000000 0.057395 0.054866
v 0.000000 0.029643 0.106786
v 0.000000 0.012553 0.163124
v 0.184446 -0.119350 -0.171543
v 0.184446 0.158705 0.155730
v 0.184446 0.054736 -0.319448
v 0.184446 0.332790 0.007825
v 0.000000 0.054736 -0.319448
v 0.000000 0.332790 0.007825
v 0.000000 -0.119350 -0.171543
v 0.000000 0.158705 0.155730
v 0.092223 0.332790 0.007825
v 0.092223 -0.119350 -0.171543
v 0.092223 0.054736 -0.319448
v 0.092223 0.158705 0.155730
v 0.184446 -0.001495 -0.271674
v 0.184446 0.289269 0.044801
v 0.000000 0.289269 0.044801
v 0.000000 -0.001495 -0.271674
v 0.092223 0.289269 0.044801
v 0.092223 -0.001495 -0.271674
v 0.184446 0.202226 0.118754
v 0.000000 0.202226 0.118754
v 0.000000 -0.063119 -0.219317
v 0.092223 0.202226 0.118754
v 0.092223 -0.063119 -0.219317
v 0.184446 -0.063119 -0.219317
v 0.151606 0.049062 -0.250700
v 0.034057 0.049062 -0.250700
v 0.034057 -0.050588 -0.166036
v 0.151606 -0.050588 -0.166036
v 0.151606 -0.237192 -0.385670
v 0.151606 -0.137541 -0.470334
v 0.034057 -0.137541 -0.470334
v 0.034057 -0.237192 -0.385670
v 0.184446 0.193763 -0.155812
v 0.184446 0.019677 -0.007906
v 0.000000 0.019677 -0.007906
v 0.000000 0.193763 -0.155812
v 0.092223 0.019677 -0.007906
v 0.092223 0.193763 -0.155812
v 0.184446 0.143887 -0.113436
v 0.184446 0.069554 -0.050282
v 0.184446 0.263277 -0.073993
v 0.184446 0.089191 0.073912
v 0.000000 0.089191 0.073912
v 0.000000 0.263277 -0.073993
v 0.092223 0.089191 0.073912
v 0.092223 0.263277 -0.073993
v 0.184446 0.216578 -0.034318
v 0.184446 0.135890 0.034236
v 0.184446 0.172574 -0.118872
v 0.184446 0.078784 -0.092086
v 0.184446 0.206066 -0.016783
v 0.184446 0.104258 0.012293
v 0.289857 0.206066 -0.016783
v 0.289857 0.172574 -0.118872
v 0.289857 0.104258 0.012293
v 0.289857 0.078784 -0.092086
v 0.184446 -0.003449 -0.380024
v 0.184446 0.090341 -0.406810
v 0.289857 -0.003449 -0.380024
v 0.289857 0.090341 -0.406810
v -0.184446 -0.119350 -0.171543
v -0.184446 0.158705 0.155730
v -0.184446 0.054736 -0.319448
v -0.184446 0.332790 0.007825
v -0.092223 0.332790 0.007825
v -0.092223 -0.119350 -0.171543
v -0.092223 0.054736 -0.319448
v -0.092223 0.158705 0.155730
v -0.184446 -0.001495 -0.271674
v -0.184446 0.289269 0.044801
v -0.092223 0.289269 0.044801
v -0.092223 -0.001495 -0.271674
v -0.184446 0.202226 0.118754
v -0.092223 0.202226 0.118754
v -0.092223 -0.063119 -0.219317
v -0.184446 -0.063119 -0.219317
v -0.151606 0.049062 -0.250700
v -0.034057 0.049062 -0.250700
v -0.034057 -0.050588 -0.166036
v -0.151606 -0.050588 -0.166036
v -0.151606 -0.237192 -0.385670
v -0.151606 -0.137541 -0.470334
v -0.034057 -0.137541 -0.470334
v -0.034057 -0.237192 -0.385670
v -0.184446 0.193763 -0.155812
v -0.184446 0.019677 -0.007906
v -0.092223 0.019677 -0.007906
v -0.092223 0.193763 -0.155812
v -0.184446 0.143887 -0.113436
v -0.184446 0.069554 -0.050282
v -0.184446 0.263277 -0.073993
v -0.184446 0.089191 0.073912
v -0.092223 0.089191 0.073912
v -0.092223 0.263277 -0.073993
v -0.184446 0.216578 -0.034318
v -0.184446 0.135890 0.034236
v -0.184446 0.172574 -0.118872
v -0.184446 0.078784 -0.092086
v -0.184446 0.206066 -0.016783
v -0.184446 0.104258 0.012293
v -0.289857 0.206066 -0.016783
v -0.289857 0.172574 -0.118872
v -0.289857 0.104258 0.012293
v -0.289857 0.078784 -0.092086
v -0.184446 -0.003449 -0.380024
v -0.184446 0.090341 -0.406810
v -0.289857 -0.003449 -0.380024
v -0.289857 0.090341 -0.406810
vn 0.0464 0.8810 -0.4709
vn 0.0865 -0.4696 -0.8786
vn 0.0624 0.7715 -0.6332
vn 0.0759 -0.6326 -0.7708
vn 0.0759 0.6326 -0.7708
vn 0.0624 -0.7715 -0.6332
vn 0.0865 0.4696 -0.8786
vn 0.0464 -0.8810 -0.4709
vn 0.0938 0.2890 -0.9527
vn 0.0286 -0.9565 -0.2902
vn 0.0975 0.0975 -0.9904
vn 0.0097 0.9951 -0.0980
vn 0.0097 -0.9951 -0.0980
vn 0.0975 -0.0975 -0.9904
vn 0.0286 0.9565 -0.2902
vn 0.0938 -0.2890 -0.9527
vn 0.0846 0.9565 -0.2790
vn 0.2779 -0.2890 -0.9161
vn 0.1374 0.8810 -0.4528
vn 0.2563 -0.4696 -0.8448
vn 0.1847 0.7715 -0.6088
vn 0.2248 -0.6326 -0.7412
vn 0.2248 0.6326 -0.7412
vn 0.1847 -0.7715 -0.6088
vn 0.2563 0.4696 -0.8448
vn 0.1374 -0.8810 -0.4528
vn 0.2779 0.2890 -0.9161
vn 0.0846 -0.9565 -0.2790
vn 0.2889 0.0976 -0.9524
vn 0.0286 0.9951 -0.0942
vn 0.0286 -0.9951 -0.0942
vn 0.2889 -0.0975 -0.9524
vn 0.4162 0.4696 -0.7786
vn 0.2230 -0.8810 -0.4173
vn 0.4513 0.2890 -0.8443
vn 0.1374 -0.9565 -0.2571
vn 0.4691 0.0975 -0.8777
vn 0.0464 0.9951 -0.0869
vn 0.0464 -0.9951 -0.0869
vn 0.4691 -0.0975 -0.8777
vn 0.1374 0.9565 -0.2571
vn 0.4513 -0.2890 -0.8443
vn 0.2230 0.8810 -0.4173
vn 0.4162 -0.4696 -0.7786
vn 0.2999 0.7715 -0.5611
vn 0.3651 -0.6326 -0.6831
vn 0.3651 0.6326 -0.6831
vn 0.2999 -0.7715 -0.5611
vn 0.6073 -0.2890 -0.7400
vn 0.3002 0.8810 -0.3658
vn 0.5601 -0.4696 -0.6825
vn 0.4036 0.7715 -0.4918
vn 0.4913 -0.6326 -0.5987
vn 0.4913 0.6326 -0.5987
vn 0.4036 -0.7715 -0.4918
vn 0.5601 0.4696 -0.6825
vn 0.3002 -0.8810 -0.3658
vn 0.6073 0.2890 -0.7400
vn 0.1850 -0.9565 -0.2254
vn 0.6314 0.0975 -0.7693
vn 0.0625 0.9951 -0.0761
vn 0.0625 -0.9951 -0.0761
vn 0.6314 -0.0975 -0.7693
vn 0.1850 0.9566 -0.2254
vn 0.3658 -0.8810 -0.3002
vn 0.7400 0.2890 -0.6073
vn 0.2254 -0.9565 -0.1850
vn 0.7693 0.0975 -0.6314
vn 0.0761 0.9951 -0.0625
vn 0.0761 -0.9951 -0.0625
vn 0.7693 -0.0975 -0.6314
vn 0.2254 0.9565 -0.1850
vn 0.7400 -0.2890 -0.6073
vn 0.3658 0.8810 -0.3002
vn 0.6825 -0.4696 -0.5601
vn 0.4918 0.7715 -0.4036
vn 0.5987 -0.6326 -0.4913
vn 0.5987 0.6326 -0.4913
vn 0.4918 -0.7715 -0.4036
vn 0.6825 0.4696 -0.5601
vn 0.4173 0.8810 -0.2230
vn 0.7786 -0.4696 -0.4162
vn 0.5611 0.7715 -0.2999
vn 0.6831 -0.6326 -0.3651
vn 0.6831 0.6326 -0.3651
vn 0.5611 -0.7715 -0.2999
vn 0.7786 0.4696 -0.4162
vn 0.4173 -0.8810 -0.2230
vn 0.8443 0.2890 -0.4513
vn 0.2571 -0.9565 -0.1374
vn 0.8777 0.0975 -0.4691
vn 0.0869 0.9951 -0.0464
vn 0.0869 -0.9951 -0.0464
vn 0.8777 -0.0975 -0.4691
vn 0.2571 0.9565 -0.1374
vn 0.8443 -0.2890 -0.4513
vn 0.9161 0.2890 -0.2779
vn 0.2790 -0.9565 -0.0846
vn 0.9524 0.0975 -0.2889
vn 0.0942 0.9951 -0.0286
vn 0.0942 -0.9951 -0.0286
vn 0.9524 -0.0975 -0.2889
vn 0.2790 0.9565 -0.0846
vn 0.9161 -0.2890 -0.2779
vn 0.4528 0.8810 -0.1374
vn 0.8448 -0.4696 -0.2563
vn 0.6088 0.7715 -0.1847
vn 0.7412 -0.6326 -0.2248
vn 0.7412 0.6326 -0.2248
vn 0.6088 -0.7715 -0.1847
vn 0.8448 0.4696 -0.2563
vn 0.4528 -0.8810 -0.1374
vn 0.8786 -0.4696 -0.0865
vn 0.6332 0.7715 -0.0624
vn 0.7708 -0.6326 -0.0759
vn 0.7708 0.6326 -0.0759
vn 0.6332 -0.7715 -0.0624
vn 0.8786 0.4696 -0.0865
vn 0.4709 -0.8810 -0.0464
vn 0.9527 0.2890 -0.0938
vn 0.2902 -0.9565 -0.0286
vn 0.9904 0.0975 -0.0975
vn 0.0980 0.9951 -0.0097
vn 0.0980 -0.9951 -0.0097
vn 0.9904 -0.0975 -0.0976
vn 0.2902 0.9565 -0.0286
vn 0.9527 -0.2890 -0.0938
vn 0.4709 0.8810 -0.0464
vn 0.2902 -0.9565 0.0286
vn 0.9904 0.0975 0.0976
vn 0.0980 0.9951 0.0097
vn 0.0980 -0.9951 0.0097
vn 0.9904 -0.0975 0.0976
vn 0.2902 0.9565 0.0286
vn 0.9527 -0.2890 0.0938
vn 0.4709 0.8810 0.0464
vn 0.8786 -0.4696 0.0865
vn 0.6332 0.7715 0.0624
vn 0.7708 -0.6326 0.0759
vn 0.7708 0.6326 0.0759
vn 0.6332 -0.7715 0.0624
vn 0.8786 0.4696 0.0865
vn 0.4709 -0.8810 0.0464
vn 0.9527 0.2890 0.0938
vn 0.7412 -0.6326 0.2248
vn 0.7412 0.6326 0.2248
vn 0.6088 -0.7715 0.1847
vn 0.8448 0.4696 0.2563
vn 0.4528 -0.8810 0.1374
vn 0.9161 0.2890 0.2779
vn 0.2790 -0.9565 0.0846
vn 0.9524 0.0975 0.2889
vn 0.0942 0.9951 0.0286
vn 0.0942 -0.9951 0.0286
vn 0.9524 -0.0975 0.2889
vn 0.2790 0.9565 0.0846
vn 0.9161 -0.2890 0.2779
vn 0.4528 0.8810 0.1374
vn 0.8448 -0.4696 0.2563
vn 0.6088 0.7715 0.1847
vn 0.0869 0.9951 0.0464
vn 0.0869 -0.9951 0.0464
vn 0.8777 -0.0975 0.4691
vn 0.2571 0.9565 0.1374
vn 0.8443 -0.2890 0.4513
vn 0.4173 0.8810 0.2230
vn 0.7786 -0.4696 0.4162
vn 0.5611 0.7715 0.2999
vn 0.6831 -0.6326 0.3651
vn 0.6831 0.6326 0.3651
vn 0.5611 -0.7715 0.2999
vn 0.7786 0.4696 0.4162
vn 0.4173 -0.8810 0.2231
vn 0.8443 0.2890 0.4513
vn 0.2571 -0.9565 0.1374
vn 0.8777 0.0975 0.4691
vn 0.1972 0.5149 0.8342
vn 0.4918 -0.7715 0.4036
vn 0.2923 0.3893 0.8735
vn 0.3658 -0.8810 0.3002
vn 0.3495 0.2407 0.9055
vn 0.2254 -0.9565 0.1850
vn 0.3717 0.0810 0.9248
vn 0.0761 0.9951 0.0625
vn 0.0761 -0.9951 0.0625
vn 0.3586 -0.0897 0.9292
vn 0.2254 0.9565 0.1850
vn 0.3063 -0.2620 0.9152
vn 0.3658 0.8810 0.3002
vn 0.2094 -0.4140 0.8859
vn 0.3490 0.7415 0.5730
vn 0.7198 -0.3646 0.5907
vn 0.6314 -0.0975 0.7693
vn 0.1850 0.9566 0.2254
vn 0.6073 -0.2890 0.7400
vn 0.3002 0.8810 0.3658
vn 0.5601 -0.4696 0.6825
vn 0.4763 0.6604 0.5804
vn 0.6079 -0.2862 0.7407
vn 0.5507 0.4965 0.6710
vn 0.4036 -0.7715 0.4918
vn 0.5601 0.4696 0.6825
vn 0.3002 -0.8810 0.3658
vn 0.6073 0.2890 0.7400
vn 0.1850 -0.9565 0.2254
vn 0.6314 0.0975 0.7693
vn 0.0625 0.9951 0.0761
vn 0.0625 -0.9951 0.0761
vn 0.2999 -0.7715 0.5611
vn 0.1750 0.4428 0.8794
vn 0.2230 -0.8810 0.4173
vn 0.2054 0.2718 0.9402
vn 0.1374 -0.9565 0.2571
vn 0.2182 0.0915 0.9716
vn 0.0464 0.9951 0.0869
vn 0.0464 -0.9951 0.0869
vn 0.2125 -0.0965 0.9724
vn 0.1374 0.9565 0.2571
vn 0.4708 -0.0499 0.8808
vn 0.2231 0.8810 0.4173
vn 0.4162 -0.4696 0.7786
vn 0.3623 0.6399 0.6777
vn 0.4598 -0.2202 0.8603
vn 0.1465 0.3981 0.9056
vn 0.0846 0.9565 0.2790
vn 0.2902 -0.0285 0.9566
vn 0.1374 0.8810 0.4528
vn 0.2563 -0.4696 0.8448
vn 0.2266 0.6249 0.7471
vn 0.2859 -0.1728 0.9425
vn 0.2859 0.1728 0.9425
vn 0.1847 -0.7715 0.6088
vn 0.2563 0.4696 0.8448
vn 0.1374 -0.8810 0.4528
vn 0.2779 0.2890 0.9161
vn 0.0846 -0.9565 0.2790
vn 0.2889 0.0975 0.9524
vn 0.0286 0.9951 0.0942
vn 0.0286 -0.9951 0.0942
vn 0.2889 -0.0975 0.9524
vn 0.0865 0.4696 0.8786
vn 0.0464 -0.8810 0.4709
vn 0.0938 0.2890 0.9527
vn 0.0286 -0.9565 0.2902
vn 0.0975 0.0975 0.9904
vn 0.0097 0.9951 0.0980
vn 0.0097 -0.9951 0.0980
vn 0.0975 -0.0975 0.9904
vn 0.0286 0.9565 0.2902
vn 0.0980 -0.0176 0.9950
vn 0.0464 0.8810 0.4709
vn 0.0865 -0.4696 0.8786
vn 0.0771 0.6169 0.7832
vn 0.0969 -0.1482 0.9842
vn 0.0969 0.1482 0.9842
vn 0.0624 -0.7715 0.6332
vn -0.0980 -0.0176 0.9950
vn -0.0464 0.8810 0.4709
vn -0.0865 -0.4696 0.8786
vn -0.0771 0.6169 0.7832
vn -0.0969 -0.1482 0.9842
vn -0.0969 0.1482 0.9842
vn -0.0624 -0.7715 0.6332
vn -0.0865 0.4696 0.8786
vn -0.0464 -0.8810 0.4709
vn -0.0938 0.2890 0.9527
vn -0.0286 -0.9565 0.2902
vn -0.0976 0.0975 0.9904
vn -0.0097 0.9951 0.0980
vn -0.0097 -0.9951 0.0980
vn -0.0976 -0.0975 0.9904
vn -0.0286 0.9565 0.2902
vn -0.1374 -0.8810 0.4528
vn -0.2779 0.2890 0.9161
vn -0.0846 -0.9565 0.2790
vn -0.2889 0.0975 0.9524
vn -0.0286 0.9951 0.0942
vn -0.0286 -0.9951 0.0942
vn -0.2889 -0.0975 0.9524
vn -0.0846 0.9565 0.2790
vn -0.2902 -0.0285 0.9566
vn -0.1374 0.8810 0.4528
vn -0.2563 -0.4696 0.8448
vn -0.2266 0.6249 0.7471
vn -0.2859 -0.1728 0.9425
vn -0.2859 0.1728 0.9425
vn -0.1847 -0.7715 0.6088
vn -0.2563 0.4696 0.8448
vn -0.4162 -0.4696 0.7786
vn -0.3623 0.6399 0.6777
vn -0.4598 -0.2202 0.8603
vn -0.1465 0.3981 0.9056
vn -0.2999 -0.7715 0.5611
vn -0.1750 0.4428 0.8794
vn -0.2231 -0.8810 0.4173
vn -0.2054 0.2718 0.9402
vn -0.1374 -0.9565 0.2571
vn -0.2182 0.0915 0.9716
vn -0.0464 0.9951 0.0869
vn -0.0464 -0.9951 0.0869
vn -0.2125 -0.0965 0.9724
vn -0.1374 0.9565 0.2571
vn -0.4708 -0.0499 0.8808
vn -0.2231 0.8810 0.4173
vn -0.1850 -0.9565 0.2254
vn -0.6314 0.0975 0.7693
vn -0.0625 0.9951 0.0761
vn -0.0625 -0.9951 0.0761
vn -0.6314 -0.0975 0.7693
vn -0.1850 0.9565 0.2254
vn -0.6073 -0.2890 0.7400
vn -0.3002 0.8810 0.3658
vn -0.5601 -0.4696 0.6825
vn -0.4763 0.6605 0.5804
vn -0.6079 -0.2862 0.7407
vn -0.5507 0.4965 0.6710
vn -0.4036 -0.7715 0.4918
vn -0.5601 0.4696 0.6825
vn -0.3002 -0.8810 0.3658
vn -0.6073 0.2890 0.7400
vn -0.3490 0.7415 0.5730
vn -0.7198 -0.3646 0.5907
vn -0.1972 0.5149 0.8342
vn -0.4918 -0.7715 0.4036
vn -0.2923 0.3893 0.8735
vn -0.3658 -0.8810 0.3002
vn -0.3495 0.2407 0.9055
vn -0.2254 -0.9565 0.1850
vn -0.3717 0.0810 0.9248
vn -0.0761 0.9951 0.0625
vn -0.0761 -0.9951 0.0625
vn -0.3586 -0.0897 0.9292
vn -0.2254 0.9565 0.1850
vn -0.3063 -0.2620 0.9152
vn -0.3658 0.8810 0.3002
vn -0.2094 -0.4140 0.8859
vn -0.8777 0.0975 0.4691
vn -0.0869 0.9951 0.0464
vn -0.0869 -0.9951 0.0464
vn -0.8777 -0.0975 0.4691
vn -0.2571 0.9565 0.1374
vn -0.8443 -0.2890 0.4513
vn -0.4173 0.8810 0.2230
vn -0.7786 -0.4696 0.4162
vn -0.5611 0.7715 0.2999
vn -0.6831 -0.6326 0.3651
vn -0.6831 0.6326 0.3651
vn -0.5611 -0.7715 0.2999
vn -0.7786 0.4696 0.4162
vn -0.4173 -0.8810 0.2231
vn -0.8443 0.2890 0.4513
vn -0.2571 -0.9565 0.1374
vn -0.7412 -0.6326 0.2248
vn -0.7412 0.6326 0.2248
vn -0.6088 -0.7715 0.1847
vn -0.8448 0.4696 0.2563
vn -0.4528 -0.8810 0.1374
vn -0.9161 0.2890 0.2779
vn -0.2790 -0.9565 0.0846
vn -0.9524 0.0975 0.2889
vn -0.0942 0.9951 0.0286
vn -0.0942 -0.9951 0.0286
vn -0.9524 -0.0975 0.2889
vn -0.2790 0.9565 0.0846
vn -0.9161 -0.2890 0.2779
vn -0.4528 0.8810 0.1374
vn -0.8448 -0.4696 0.2563
vn -0.6088 0.7715 0.1847
vn -0.0980 0.9951 0.0097
vn -0.0980 -0.9951 0.0097
vn -0.9904 -0.0975 0.0975
vn -0.2902 0.9565 0.0286
vn -0.9527 -0.2890 0.0938
vn -0.4709 0.8810 0.0464
vn -0.8786 -0.4696 0.0865
vn -0.6332 0.7715 0.0624
vn -0.7708 -0.6326 0.0759
vn -0.7708 0.6326 0.0759
vn -0.6332 -0.7715 0.0624
vn -0.8786 0.4696 0.0865
vn -0.4709 -0.8810 0.0464
vn -0.9527 0.2890 0.0938
vn -0.2902 -0.9565 0.0286
vn -0.9904 0.0975 0.0975
vn -0.7708 0.6326 -0.0759
vn -0.6332 -0.7715 -0.0624
vn -0.8786 0.4696 -0.0865
vn -0.4709 -0.8810 -0.0464
vn -0.9527 0.2890 -0.0938
vn -0.2902 -0.9565 -0.0286
vn -0.9904 0.0975 -0.0976
vn -0.0980 0.9951 -0.0097
vn -0.0980 -0.9951 -0.0097
vn -0.9904 -0.0975 -0.0976
vn -0.2902 0.9565 -0.0286
vn -0.9527 -0.2890 -0.0938
vn -0.4709 0.8810 -0.0464
vn -0.8786 -0.4696 -0.0865
vn -0.6332 0.7715 -0.0624
vn -0.7708 -0.6326 -0.0759
vn -0.9524 -0.0975 -0.2889
vn -0.2790 0.9565 -0.0846
vn -0.9161 -0.2890 -0.2779
vn -0.4528 0.8810 -0.1374
vn -0.8448 -0.4696 -0.2563
vn -0.6088 0.7715 -0.1847
vn -0.7412 -0.6326 -0.2248
vn -0.7412 0.6326 -0.2248
vn -0.6088 -0.7715 -0.1847
vn -0.8448 0.4696 -0.2563
vn -0.4528 -0.8810 -0.1374
vn -0.9161 0.2890 -0.2779
vn -0.2790 -0.9565 -0.0846
vn -0.9524 0.0975 -0.2889
vn -0.0942 0.9951 -0.0286
vn -0.0942 -0.9951 -0.0286
vn -0.5611 -0.7715 -0.2999
vn -0.7786 0.4696 -0.4162
vn -0.4173 -0.8810 -0.2231
vn -0.8443 0.2890 -0.4513
vn -0.2571 -0.9565 -0.1374
vn -0.8777 0.0975 -0.4691
vn -0.0869 0.9951 -0.0464
vn -0.0869 -0.9951 -0.0464
vn -0.8777 -0.0975 -0.4691
vn -0.2571 0.9565 -0.1374
vn -0.8443 -0.2890 -0.4513
vn -0.4173 0.8810 -0.2231
vn -0.7786 -0.4696 -0.4162
vn -0.5611 0.7715 -0.2999
vn -0.6831 -0.6326 -0.3651
vn -0.6831 0.6326 -0.3651
vn -0.7400 -0.2890 -0.6073
vn -0.3658 0.8810 -0.3002
vn -0.6825 -0.4696 -0.5601
vn -0.4918 0.7715 -0.4036
vn -0.5987 -0.6326 -0.4913
vn -0.5987 0.6326 -0.4913
vn -0.4918 -0.7715 -0.4036
vn -0.6825 0.4696 -0.5601
vn -0.3658 -0.8810 -0.3002
vn -0.7400 0.2890 -0.6073
vn -0.2254 -0.9565 -0.1850
vn -0.7693 0.0975 -0.6314
vn -0.0761 0.9951 -0.0625
vn -0.0761 -0.9951 -0.0625
vn -0.7693 -0.0975 -0.6314
vn -0.2254 0.9565 -0.1850
vn -0.3002 -0.8810 -0.3658
vn -0.6073 0.2890 -0.7400
vn -0.1850 -0.9565 -0.2254
vn -0.6314 0.0975 -0.7693
vn -0.0625 0.9951 -0.0761
vn -0.0625 -0.9951 -0.0761
vn -0.6314 -0.0975 -0.7693
vn -0.1850 0.9565 -0.2254
vn -0.6073 -0.2890 -0.7400
vn -0.3002 0.8810 -0.3658
vn -0.5601 -0.4696 -0.6825
vn -0.4036 0.7715 -0.4918
vn -0.4913 -0.6326 -0.5987
vn -0.4913 0.6326 -0.5987
vn -0.4036 -0.7715 -0.4918
vn -0.5601 0.4696 -0.6825
vn -0.2231 0.8810 -0.4173
vn -0.4162 -0.4696 -0.7786
vn -0.2999 0.7715 -0.5611
vn -0.3651 -0.6326 -0.6831
vn -0.3651 0.6326 -0.6831
vn -0.2999 -0.7715 -0.5611
vn -0.4162 0.4696 -0.7786
vn -0.2230 -0.8810 -0.4173
vn -0.4513 0.2890 -0.8443
vn -0.1374 -0.9565 -0.2571
vn -0.4691 0.0975 -0.8777
vn -0.0464 0.9951 -0.0869
vn -0.0464 -0.9951 -0.0869
vn -0.4691 -0.0975 -0.8777
vn -0.1374 0.9565 -0.2571
vn -0.4513 -0.2890 -0.8443
vn -0.2779 0.2890 -0.9161
vn -0.0846 -0.9565 -0.2790
vn -0.2889 0.0975 -0.9524
vn -0.0286 0.9951 -0.0942
vn -0.0286 -0.9951 -0.0942
vn -0.2889 -0.0975 -0.9524
vn -0.0846 0.9565 -0.2790
vn -0.2779 -0.2890 -0.9161
vn -0.1374 0.8810 -0.4528
vn -0.2563 -0.4696 -0.8448
vn -0.1847 0.7715 -0.6088
vn -0.2248 -0.6326 -0.7412
vn -0.2248 0.6326 -0.7412
vn -0.1847 -0.7715 -0.6088
vn -0.2563 0.4696 -0.8448
vn -0.1374 -0.8810 -0.4528
vn -0.0865 -0.4696 -0.8786
vn -0.0624 0.7715 -0.6332
vn -0.0759 -0.6326 -0.7708
vn -0.0759 0.6326 -0.7708
vn -0.0624 -0.7715 -0.6332
vn -0.0865 0.4696 -0.8786
vn -0.0464 -0.8810 -0.4709
vn -0.0938 0.2890 -0.9527
vn -0.0286 -0.9565 -0.2902
vn -0.0976 0.0975 -0.9904
vn -0.0097 0.9951 -0.0980
vn -0.0097 -0.9951 -0.0980
vn -0.0976 -0.0975 -0.9904
vn -0.0286 0.9565 -0.2902
vn -0.0938 -0.2890 -0.9527
vn -0.0464 0.8810 -0.4709
vn 0.0976 0.0975 -0.9904
vn 0.0975 -0.0976 -0.9904
vn 0.2889 0.0975 -0.9524
vn 0.1850 0.9565 -0.2254
vn 0.9904 0.0975 -0.0976
vn 0.9904 -0.0975 -0.0975
vn 0.4173 0.8810 0.2231
vn 0.4173 -0.8810 0.2230
vn 0.4602 0.4663 0.7555
vn 0.2094 0.4140 0.8859
vn 0.3063 0.2620 0.9152
vn 0.3586 0.0897 0.9292
vn 0.3717 -0.0810 0.9248
vn 0.2254 0.9566 0.1850
vn 0.3495 -0.2407 0.9055
vn 0.2923 -0.3893 0.8735
vn 0.5634 0.6846 0.4624
vn 0.1972 -0.5149 0.8342
vn 0.1850 0.9565 0.2254
vn 0.4763 0.6605 0.5804
vn 0.1417 0.4615 0.8758
vn 0.1871 0.2852 0.9400
vn 0.2125 0.0965 0.9724
vn 0.2182 -0.0915 0.9716
vn 0.2054 -0.2718 0.9402
vn 0.2230 0.8810 0.4173
vn 0.4598 0.2202 0.8603
vn -0.4598 0.2202 0.8603
vn -0.1417 0.4615 0.8758
vn -0.1871 0.2852 0.9400
vn -0.2125 0.0965 0.9724
vn -0.2182 -0.0915 0.9716
vn -0.1374 0.9566 0.2571
vn -0.2054 -0.2718 0.9402
vn -0.2230 0.8810 0.4173
vn -0.5634 0.6846 0.4624
vn -0.1972 -0.5149 0.8342
vn -0.4602 0.4663 0.7555
vn -0.2094 0.4140 0.8859
vn -0.3063 0.2620 0.9152
vn -0.3586 0.0897 0.9292
vn -0.3717 -0.0810 0.9248
vn -0.3495 -0.2407 0.9055
vn -0.2923 -0.3893 0.8735
vn -0.4173 0.8810 0.2231
vn -0.4173 -0.8810 0.2230
vn -0.2230 0.8810 -0.4173
vn -0.0000 0.7621 -0.6475
vn 1.0000 -0.0000 -0.0000
vn -0.0000 -0.6475 -0.7621
vn -0.0000 0.6475 0.7621
vn -0.0000 -0.7621 0.6475
vn -1.0000 -0.0000 -0.0000
vn -0.0000 0.2746 0.9616
vn -0.0000 0.9502 -0.3117
vn -0.0000 -0.9616 0.2746
vn -0.0000 -0.9715 0.2371
vn -0.0000 -0.2746 -0.9616
vn -0.0000 0.9616 -0.2746
vt 0.297676 0.327525
vt 0.303929 0.343565
vt 0.291988 0.333427
vt 0.239205 0.264341
vt 0.222968 0.262261
vt 0.230897 0.255394
vt 0.288172 0.317219
vt 0.281396 0.323960
vt 0.222022 0.245854
vt 0.214824 0.252082
vt 0.271836 0.315039
vt 0.279304 0.307627
vt 0.206249 0.240861
vt 0.212550 0.235671
vt 0.270983 0.298651
vt 0.262954 0.306356
vt 0.197097 0.228248
vt 0.201963 0.224337
vt 0.262924 0.290013
vt 0.254558 0.297926
vt 0.187189 0.213777
vt 0.190029 0.211562
vt 0.246535 0.289421
vt 0.255030 0.281514
vt 0.320180 0.351909
vt 0.333907 0.366813
vt 0.317741 0.354603
vt 0.176368 0.196882
vt 0.238705 0.280739
vt 0.247199 0.273002
vt 0.308223 0.338984
vt 0.230934 0.271751
vt 0.300192 0.348700
vt 0.222135 0.278922
vt 0.286864 0.339975
vt 0.214479 0.268767
vt 0.275147 0.331413
vt 0.206946 0.257724
vt 0.264684 0.323024
vt 0.199357 0.245440
vt 0.255133 0.314592
vt 0.191737 0.231553
vt 0.246227 0.306152
vt 0.184013 0.215515
vt 0.237825 0.297515
vt 0.315711 0.357643
vt 0.229857 0.288452
vt 0.247339 0.323487
vt 0.191777 0.249325
vt 0.185815 0.234145
vt 0.237691 0.314905
vt 0.180569 0.216769
vt 0.228747 0.305900
vt 0.314185 0.361021
vt 0.220471 0.296274
vt 0.297133 0.354427
vt 0.212677 0.285992
vt 0.282381 0.347261
vt 0.205221 0.274929
vt 0.269386 0.339626
vt 0.198342 0.262812
vt 0.257806 0.331799
vt 0.202332 0.293038
vt 0.278615 0.355375
vt 0.195079 0.280772
vt 0.264162 0.348833
vt 0.188790 0.267284
vt 0.251169 0.341476
vt 0.183431 0.252431
vt 0.239489 0.333260
vt 0.179382 0.235930
vt 0.228816 0.324408
vt 0.176892 0.217442
vt 0.219082 0.314828
vt 0.313222 0.364677
vt 0.210304 0.304367
vt 0.294841 0.360730
vt 0.172470 0.236722
vt 0.231481 0.344261
vt 0.219398 0.334977
vt 0.173054 0.217442
vt 0.208546 0.324554
vt 0.312923 0.368549
vt 0.199028 0.312908
vt 0.293503 0.367588
vt 0.190749 0.300136
vt 0.275719 0.364297
vt 0.183681 0.286260
vt 0.259541 0.359146
vt 0.178183 0.271058
vt 0.244777 0.352431
vt 0.174350 0.254604
vt 0.273870 0.374355
vt 0.177477 0.307336
vt 0.170652 0.291303
vt 0.255695 0.370880
vt 0.166227 0.273937
vt 0.238686 0.365046
vt 0.164230 0.255642
vt 0.223224 0.356932
vt 0.165133 0.236481
vt 0.209191 0.347037
vt 0.169168 0.216783
vt 0.196766 0.335422
vt 0.313275 0.372522
vt 0.186196 0.322105
vt 0.293169 0.374949
vt 0.214649 0.371904
vt 0.197882 0.361199
vt 0.165337 0.215370
vt 0.183224 0.347906
vt 0.314380 0.376500
vt 0.171173 0.332219
vt 0.294130 0.382792
vt 0.161881 0.314654
vt 0.273419 0.385334
vt 0.155480 0.295689
vt 0.252950 0.384315
vt 0.152673 0.275569
vt 0.233062 0.379849
vt 0.153326 0.255210
vt 0.157493 0.234931
vt 0.143020 0.322035
vt 0.137422 0.299020
vt 0.251833 0.399900
vt 0.137115 0.275383
vt 0.228237 0.397609
vt 0.141296 0.252818
vt 0.205731 0.390119
vt 0.149807 0.231896
vt 0.185051 0.378375
vt 0.161705 0.213199
vt 0.167163 0.362701
vt 0.316281 0.380336
vt 0.153015 0.343591
vt 0.296570 0.390813
vt 0.274832 0.397617
vt 0.158429 0.210268
vt 0.170120 0.399983
vt 0.147451 0.380847
vt 0.318984 0.383882
vt 0.130261 0.356680
vt 0.300728 0.398811
vt 0.119453 0.329287
vt 0.278737 0.410605
vt 0.115438 0.300533
vt 0.253241 0.417997
vt 0.119262 0.272429
vt 0.224881 0.419418
vt 0.128771 0.247887
vt 0.196544 0.413027
vt 0.142207 0.227123
vt 0.098719 0.265052
vt 0.258717 0.439117
vt 0.224303 0.446955
vt 0.115815 0.239436
vt 0.187348 0.443042
vt 0.135388 0.220420
vt 0.152254 0.428303
vt 0.155699 0.206605
vt 0.122379 0.403917
vt 0.322486 0.386899
vt 0.100577 0.372123
vt 0.306967 0.406302
vt 0.088805 0.335955
vt 0.286137 0.424373
vt 0.087946 0.298794
vt 0.326687 0.389185
vt 0.153775 0.202297
vt 0.060147 0.391124
vt 0.315303 0.412622
vt 0.046668 0.341142
vt 0.298059 0.437567
vt 0.052668 0.290848
vt 0.270919 0.463383
vt 0.075521 0.250241
vt 0.229353 0.482800
vt 0.103940 0.226683
vt 0.178684 0.484706
vt 0.129829 0.211696
vt 0.129910 0.467054
vt 0.089688 0.433965
vt 0.250116 0.507676
vt 0.057849 0.225157
vt 0.095290 0.209603
vt 0.183386 0.522533
vt 0.126358 0.201317
vt 0.114577 0.506299
vt 0.152809 0.197537
vt 0.056169 0.464744
vt 0.331423 0.390538
vt 0.019834 0.403050
vt 0.325503 0.416979
vt 0.009517 0.333381
vt 0.314532 0.447790
vt 0.029484 0.268434
vt 0.290460 0.475133
vt 0.950439 0.455974
vt 0.894087 0.401917
vt 0.948222 0.398614
vt 0.336473 0.390908
vt 0.336926 0.419032
vt 0.890097 0.347749
vt 0.941553 0.342219
vt 0.334344 0.452906
vt 0.932154 0.285513
vt 0.884875 0.291454
vt 0.321780 0.487863
vt 0.006963 0.216526
vt 0.049724 0.193102
vt 0.299230 0.535341
vt 0.091911 0.189784
vt 0.924278 0.624459
vt 0.886619 0.560988
vt 0.936893 0.568973
vt 0.125245 0.189934
vt 0.946054 0.513171
vt 0.892329 0.507808
vt 0.152835 0.192546
vt 0.894774 0.454974
vt 0.052462 0.159386
vt 0.094371 0.168932
vt 0.877835 0.615645
vt 0.841511 0.561039
vt 0.127434 0.178298
vt 0.845237 0.507402
vt 0.154109 0.187625
vt 0.846968 0.454213
vt 0.341550 0.390006
vt 0.846754 0.400954
vt 0.348882 0.417732
vt 0.839975 0.350053
vt 0.355733 0.451992
vt 0.837240 0.294689
vt 0.356509 0.488471
vt 0.006497 0.161987
vt 0.349402 0.535341
vt 0.360319 0.413334
vt 0.794689 0.401363
vt 0.791220 0.351166
vt 0.376275 0.444839
vt 0.789846 0.296480
vt 0.389683 0.478177
vt 0.023877 0.111609
vt 0.065311 0.127957
vt 0.402962 0.522113
vt 0.102792 0.149222
vt 0.835853 0.616420
vt 0.791855 0.557927
vt 0.132616 0.167399
vt 0.793663 0.505362
vt 0.156507 0.183086
vt 0.794490 0.453517
vt 0.346330 0.387937
vt 0.789015 0.612850
vt 0.742741 0.556692
vt 0.116464 0.132417
vt 0.140478 0.158166
vt 0.742965 0.504474
vt 0.159819 0.179121
vt 0.743020 0.453152
vt 0.350602 0.384897
vt 0.743231 0.401457
vt 0.370281 0.406110
vt 0.743145 0.351504
vt 0.393987 0.432109
vt 0.742706 0.297355
vt 0.418044 0.458263
vt 0.055920 0.069017
vt 0.086868 0.101887
vt 0.449528 0.492471
vt 0.695304 0.351439
vt 0.378369 0.396838
vt 0.408103 0.415513
vt 0.695877 0.297491
vt 0.440217 0.431671
vt 0.114224 0.081890
vt 0.482855 0.448536
vt 0.134232 0.120047
vt 0.742196 0.611343
vt 0.693707 0.557173
vt 0.150220 0.150974
vt 0.692380 0.504691
vt 0.163960 0.176025
vt 0.691724 0.453145
vt 0.354058 0.380948
vt 0.691948 0.401250
vt 0.154479 0.113062
vt 0.161539 0.146930
vt 0.644123 0.559591
vt 0.641142 0.506106
vt 0.168688 0.173972
vt 0.639932 0.453419
vt 0.356503 0.376320
vt 0.640369 0.400629
vt 0.383439 0.385694
vt 0.647196 0.350466
vt 0.416960 0.395714
vt 0.649360 0.296527
vt 0.453238 0.399511
vt 0.100341 0.039532
vt 0.146391 0.070919
vt 0.500462 0.396376
vt 0.695481 0.611727
vt 0.598067 0.348192
vt 0.603237 0.293666
vt 0.419731 0.374479
vt 0.455548 0.364820
vt 0.151671 0.025090
vt 0.180364 0.070182
vt 0.504752 0.346525
vt 0.175517 0.112203
vt 0.607267 0.613142
vt 0.599655 0.558699
vt 0.173174 0.145607
vt 0.594495 0.505968
vt 0.173694 0.173066
vt 0.592282 0.453719
vt 0.357704 0.371296
vt 0.593811 0.401384
vt 0.385406 0.373959
vt 0.184380 0.147251
vt 0.178689 0.173396
vt 0.541370 0.509929
vt 0.538802 0.454095
vt 0.357753 0.366234
vt 0.540638 0.398313
vt 0.384673 0.362483
vt 0.547258 0.342427
vt 0.416213 0.354032
vt 0.557229 0.287495
vt 0.445370 0.332418
vt 0.206220 0.028574
vt 0.212158 0.080296
vt 0.481808 0.295229
vt 0.195053 0.117272
vt 0.549040 0.565948
vt 0.407539 0.336780
vt 0.435116 0.311894
vt 0.257276 0.053700
vt 0.236407 0.099772
vt 0.459187 0.272279
vt 0.211117 0.127049
vt 0.501882 0.230234
vt 0.464209 0.221899
vt 0.194455 0.151518
vt 0.494169 0.159415
vt 0.452357 0.170661
vt 0.183380 0.174700
vt 0.457765 0.093039
vt 0.422920 0.125360
vt 0.356793 0.361404
vt 0.379896 0.092598
vt 0.394289 0.051658
vt 0.381153 0.351930
vt 0.329514 0.076917
vt 0.324005 0.038533
vt 0.278525 0.078148
vt 0.410643 0.189666
vt 0.388236 0.157589
vt 0.354804 0.357057
vt 0.187527 0.176980
vt 0.357840 0.132897
vt 0.375381 0.343217
vt 0.321886 0.118209
vt 0.395363 0.324074
vt 0.284216 0.115298
vt 0.412700 0.297606
vt 0.249856 0.123487
vt 0.422953 0.264103
vt 0.222838 0.139642
vt 0.422687 0.226485
vt 0.202668 0.157637
vt 0.255888 0.144620
vt 0.392026 0.290378
vt 0.395345 0.262298
vt 0.230339 0.152952
vt 0.391732 0.233091
vt 0.208870 0.164939
vt 0.380466 0.205477
vt 0.190989 0.179954
vt 0.362716 0.181340
vt 0.352065 0.353349
vt 0.339890 0.161912
vt 0.368493 0.336411
vt 0.313100 0.148718
vt 0.382200 0.315568
vt 0.284161 0.143109
vt 0.348775 0.350375
vt 0.193689 0.183420
vt 0.324945 0.183921
vt 0.360903 0.331568
vt 0.304103 0.172044
vt 0.369392 0.310527
vt 0.281147 0.165067
vt 0.373894 0.287491
vt 0.257613 0.162862
vt 0.373256 0.263825
vt 0.234474 0.165869
vt 0.367864 0.240441
vt 0.213110 0.172775
vt 0.357473 0.218826
vt 0.342890 0.199809
vt 0.358132 0.287359
vt 0.355093 0.267195
vt 0.256695 0.178538
vt 0.236070 0.177917
vt 0.348794 0.247947
vt 0.215631 0.180770
vt 0.339186 0.230385
vt 0.195603 0.187190
vt 0.326803 0.214799
vt 0.345125 0.348171
vt 0.312130 0.201350
vt 0.353028 0.328455
vt 0.295292 0.190541
vt 0.357359 0.308093
vt 0.276550 0.182935
vt 0.300845 0.215680
vt 0.341266 0.346755
vt 0.345288 0.326868
vt 0.286786 0.205704
vt 0.346272 0.307615
vt 0.271080 0.197829
vt 0.344394 0.289037
vt 0.254085 0.192071
vt 0.339821 0.271626
vt 0.235779 0.188922
vt 0.333055 0.255377
vt 0.216651 0.188527
vt 0.324089 0.240635
vt 0.196725 0.191110
vt 0.313260 0.227416
vt 0.250343 0.203852
vt 0.234074 0.198871
vt 0.319684 0.262666
vt 0.216403 0.195810
vt 0.311210 0.249932
vt 0.197130 0.195043
vt 0.301488 0.238377
vt 0.337343 0.346064
vt 0.290662 0.227857
vt 0.337932 0.326586
vt 0.278579 0.218506
vt 0.336158 0.308618
vt 0.265102 0.210513
vt 0.332328 0.291954
vt 0.326713 0.276707
vt 0.270609 0.229598
vt 0.330988 0.327403
vt 0.326953 0.310773
vt 0.258794 0.221529
vt 0.321626 0.295767
vt 0.245793 0.214212
vt 0.315242 0.282226
vt 0.231278 0.207848
vt 0.308029 0.269832
vt 0.215088 0.202669
vt 0.299904 0.258547
vt 0.196822 0.198863
vt 0.290962 0.248171
vt 0.333474 0.346058
vt 0.281264 0.238506
vt 0.212888 0.208935
vt 0.297631 0.276930
vt 0.289718 0.266693
vt 0.195930 0.202503
vt 0.281307 0.257146
vt 0.329749 0.346687
vt 0.272407 0.248064
vt 0.324523 0.329156
vt 0.262790 0.239436
vt 0.318574 0.313853
vt 0.252229 0.231270
vt 0.312039 0.300277
vt 0.240623 0.223412
vt 0.305022 0.288085
vt 0.227616 0.215933
vt 0.318532 0.331733
vt 0.310934 0.317715
vt 0.255021 0.248345
vt 0.245416 0.240028
vt 0.303366 0.305377
vt 0.234925 0.231658
vt 0.295762 0.294256
vt 0.223225 0.223220
vt 0.288156 0.284038
vt 0.209902 0.214671
vt 0.280323 0.274549
vt 0.194434 0.205858
vt 0.272244 0.265564
vt 0.326268 0.347942
vt 0.263889 0.256845
vt 0.279356 0.291254
vt 0.271466 0.282272
vt 0.206245 0.219798
vt 0.192477 0.208915
vt 0.263549 0.273629
vt 0.323054 0.349685
vt 0.255539 0.265090
vt 0.313098 0.335026
vt 0.247187 0.256567
vt 0.303963 0.322263
vt 0.238329 0.248025
vt 0.295464 0.311028
vt 0.228733 0.239103
vt 0.287239 0.300748
vt 0.218190 0.229778
vt 0.648996 0.614317
vt 0.561066 0.621015
vt 0.109657 0.862678
vt 0.158732 0.846976
vt 0.146744 0.884417
vt 0.131727 0.749395
vt 0.162797 0.719513
vt 0.162668 0.753303
vt 0.258084 0.765791
vt 0.275996 0.707119
vt 0.298492 0.759177
vt 0.037589 0.715524
vt 0.115577 0.700542
vt 0.092921 0.738032
vt 0.136455 0.627770
vt 0.154210 0.681150
vt 0.136134 0.722469
vt 0.321398 0.665759
vt 0.353143 0.749190
vt 0.066802 0.903072
vt 0.127211 0.938077
vt 0.128062 0.814131
vt 0.090360 0.824408
vt 0.037589 0.840865
vt 0.194637 0.757408
vt 0.255094 0.811719
vt 0.192685 0.811743
vt 0.160371 0.812915
vt 0.245474 0.844698
vt 0.293048 0.822355
vt 0.265970 0.868340
vt 0.133464 0.840126
vt 0.347944 0.841196
vt 0.298218 0.906041
vt 0.732638 0.946127
vt 0.619394 0.819369
vt 0.733304 0.692080
vt 0.619239 0.824773
vt 0.616888 0.821930
vt 0.506021 0.698042
vt 0.506021 0.951258
vt 0.621944 0.822217
vt 0.192576 0.946247
vt 0.196777 0.717906
vt 0.248205 0.732604
vt 0.199542 0.677279
vt 0.191529 0.892098
vt 0.191911 0.850708
vt 0.202984 0.619487
vt 0.494705 0.050384
vt 0.627944 0.098736
vt 0.601624 0.138055
vt 0.674855 0.067288
vt 0.687305 0.083992
vt 0.702588 0.096234
vt 0.676391 0.040606
vt 0.900494 0.096361
vt 0.598171 0.071813
vt 0.978536 0.069120
vt 0.843080 0.030528
vt 0.880275 0.008757
vt 0.970300 0.105908
vt 0.916767 0.102792
vt 0.079792 0.661318
vt 0.919662 0.090975
vt 0.874656 0.056523
vt 0.758840 0.946129
vt 0.758172 0.692080
vt 0.872084 0.819370
vt 0.874590 0.821932
vt 0.872238 0.824774
vt 0.985455 0.698043
vt 0.985455 0.951256
vt 0.869533 0.822218
vt 0.964062 0.166332
vt 0.860646 0.241668
vt 0.837050 0.204571
vt 0.781302 0.188354
vt 0.794574 0.174023
vt 0.771601 0.198463
vt 0.797069 0.149354
vt 0.567776 0.197280
vt 0.866170 0.181383
vt 0.627865 0.230670
vt 0.667770 0.224773
vt 0.629640 0.266185
vt 0.567051 0.190312
vt 0.519547 0.196447
vt 0.583360 0.189155
vt 0.511636 0.261942
s 0
usemtl マテリアル
f 1/1/1 8/2/1 9/3/1
f 478/4/2 17/5/2 6/6/2
f 476/7/3 9/3/3 10/8/3
f 479/9/4 17/5/4 18/10/4
f 476/7/5 11/11/5 2/12/5
f 479/9/6 19/13/6 480/14/6
f 477/15/7 11/11/7 12/16/7
f 480/14/8 20/17/8 481/18/8
f 3/19/9 12/16/9 13/20/9
f 481/18/10 21/21/10 482/22/10
f 3/19/11 14/23/11 4/24/11
f 474/25/12 82/26/12 7/27/12
f 308/28/13 482/22/13 21/21/13
f 4/24/14 15/29/14 5/30/14
f 475/31/15 7/27/15 8/2/15
f 5/30/16 16/32/16 478/4/16
f 7/27/17 23/33/17 8/2/17
f 15/29/18 31/34/18 16/32/18
f 8/2/19 24/35/19 9/3/19
f 17/5/20 31/34/20 32/36/20
f 9/3/21 25/37/21 10/8/21
f 18/10/22 32/36/22 33/38/22
f 10/8/23 26/39/23 11/11/23
f 19/13/24 33/38/24 34/40/24
f 11/11/25 27/41/25 12/16/25
f 20/17/26 34/40/26 35/42/26
f 13/20/27 27/41/27 28/43/27
f 20/17/28 36/44/28 21/21/28
f 13/20/29 29/45/29 14/23/29
f 7/27/30 82/26/30 22/46/30
f 308/28/31 21/21/31 36/44/31
f 14/23/32 30/47/32 15/29/32
f 26/39/33 42/48/33 27/41/33
f 35/42/34 49/49/34 50/50/34
f 28/43/35 42/48/35 43/51/35
f 36/44/36 50/50/36 51/52/36
f 29/45/37 43/51/37 44/53/37
f 22/46/38 82/26/38 37/54/38
f 308/28/39 36/44/39 51/52/39
f 29/45/40 45/55/40 30/47/40
f 22/46/41 38/56/41 23/33/41
f 30/47/42 46/57/42 31/34/42
f 23/33/43 39/58/43 24/35/43
f 32/36/44 46/57/44 47/59/44
f 24/35/45 40/60/45 25/37/45
f 33/38/46 47/59/46 48/61/46
f 25/37/47 41/62/47 26/39/47
f 34/40/48 48/61/48 49/49/48
f 45/55/49 61/63/49 46/57/49
f 38/56/50 54/64/50 39/58/50
f 47/59/51 61/63/51 62/65/51
f 39/58/52 55/66/52 40/60/52
f 47/59/53 63/67/53 48/61/53
f 41/62/54 55/66/54 56/68/54
f 49/49/55 63/67/55 64/69/55
f 41/62/56 57/70/56 42/48/56
f 50/50/57 64/69/57 65/71/57
f 43/51/58 57/70/58 58/72/58
f 51/52/59 65/71/59 66/73/59
f 44/53/60 58/72/60 59/74/60
f 37/54/61 82/26/61 52/75/61
f 308/28/62 51/52/62 66/73/62
f 44/53/63 60/76/63 45/55/63
f 37/54/64 53/77/64 38/56/64
f 64/69/65 80/78/65 65/71/65
f 58/72/66 72/79/66 73/80/66
f 65/71/67 81/81/67 66/73/67
f 59/74/68 73/80/68 74/82/68
f 52/75/69 82/26/69 67/83/69
f 308/28/70 66/73/70 81/81/70
f 59/74/71 75/84/71 60/76/71
f 53/77/72 67/83/72 68/85/72
f 60/76/73 76/86/73 61/63/73
f 54/64/74 68/85/74 69/87/74
f 62/65/75 76/86/75 77/88/75
f 54/64/76 70/89/76 55/66/76
f 62/65/77 78/90/77 63/67/77
f 56/68/78 70/89/78 71/91/78
f 64/69/79 78/90/79 79/92/79
f 56/68/80 72/79/80 57/70/80
f 68/85/81 85/93/81 69/87/81
f 77/88/82 92/94/82 93/95/82
f 69/87/83 86/96/83 70/89/83
f 77/88/84 94/97/84 78/90/84
f 71/91/85 86/96/85 87/98/85
f 79/92/86 94/97/86 95/99/86
f 71/91/87 88/100/87 72/79/87
f 80/78/88 95/99/88 96/101/88
f 73/80/89 88/100/89 89/102/89
f 81/81/90 96/101/90 97/103/90
f 74/82/91 89/102/91 90/104/91
f 67/83/92 82/26/92 83/105/92
f 308/28/93 81/81/93 97/103/93
f 74/82/94 91/106/94 75/84/94
f 67/83/95 84/107/95 68/85/95
f 75/84/96 92/94/96 76/86/96
f 89/102/97 103/108/97 104/109/97
f 96/101/98 112/110/98 97/103/98
f 90/104/99 104/109/99 105/111/99
f 83/105/100 82/26/100 98/112/100
f 308/28/101 97/103/101 112/110/101
f 90/104/102 106/113/102 91/106/102
f 83/105/103 99/114/103 84/107/103
f 91/106/104 107/115/104 92/94/104
f 85/93/105 99/114/105 100/116/105
f 93/95/106 107/115/106 108/117/106
f 85/93/107 101/118/107 86/96/107
f 93/95/108 109/119/108 94/97/108
f 87/98/109 101/118/109 102/120/109
f 95/99/110 109/119/110 110/121/110
f 87/98/111 103/108/111 88/100/111
f 95/99/112 111/122/112 96/101/112
f 108/117/113 122/123/113 123/124/113
f 100/116/114 116/125/114 101/118/114
f 108/117/115 124/126/115 109/119/115
f 102/120/116 116/125/116 117/127/116
f 110/121/117 124/126/117 125/128/117
f 102/120/118 118/129/118 103/108/118
f 111/122/119 125/128/119 126/130/119
f 104/109/120 118/129/120 119/131/120
f 111/122/121 127/132/121 112/110/121
f 105/111/122 119/131/122 120/133/122
f 98/112/123 82/26/123 113/134/123
f 308/28/124 112/110/124 127/132/124
f 105/111/125 121/135/125 106/113/125
f 98/112/126 114/136/126 99/114/126
f 106/113/127 122/123/127 107/115/127
f 99/114/128 115/137/128 100/116/128
f 126/130/129 142/138/129 127/132/129
f 120/133/130 134/139/130 135/140/130
f 113/134/131 82/26/131 128/141/131
f 308/28/132 127/132/132 142/138/132
f 120/133/133 136/142/133 121/135/133
f 114/136/134 128/141/134 129/143/134
f 121/135/135 137/144/135 122/123/135
f 115/137/136 129/143/136 130/145/136
f 123/124/137 137/144/137 138/146/137
f 115/137/138 131/147/138 116/125/138
f 123/124/139 139/148/139 124/126/139
f 117/127/140 131/147/140 132/149/140
f 125/128/141 139/148/141 140/150/141
f 117/127/142 133/151/142 118/129/142
f 125/128/143 141/152/143 126/130/143
f 119/131/144 133/151/144 134/139/144
f 138/146/145 154/153/145 139/148/145
f 132/149/146 146/154/146 147/155/146
f 140/150/147 154/153/147 155/156/147
f 132/149/148 148/157/148 133/151/148
f 141/152/149 155/156/149 156/158/149
f 134/139/150 148/157/150 149/159/150
f 141/152/151 157/160/151 142/138/151
f 135/140/152 149/159/152 150/161/152
f 128/141/153 82/26/153 143/162/153
f 308/28/154 142/138/154 157/160/154
f 135/140/155 151/163/155 136/142/155
f 128/141/156 144/164/156 129/143/156
f 136/142/157 152/165/157 137/144/157
f 129/143/158 145/166/158 130/145/158
f 138/146/159 152/165/159 153/167/159
f 130/145/160 146/154/160 131/147/160
f 143/162/161 82/26/161 158/168/161
f 308/28/162 157/160/162 172/169/162
f 150/161/163 166/170/163 151/163/163
f 143/162/164 159/171/164 144/164/164
f 151/163/165 167/172/165 152/165/165
f 144/164/166 160/173/166 145/166/166
f 153/167/167 167/172/167 168/174/167
f 145/166/168 161/175/168 146/154/168
f 153/167/169 169/176/169 154/153/169
f 147/155/170 161/175/170 162/177/170
f 155/156/171 169/176/171 170/178/171
f 147/155/172 163/179/172 148/157/172
f 156/158/173 170/178/173 171/180/173
f 149/159/174 163/179/174 164/181/174
f 157/160/175 171/180/175 172/169/175
f 150/161/176 164/181/176 165/182/176
f 161/175/177 177/183/177 162/177/177
f 170/178/178 184/184/178 185/185/178
f 162/177/179 178/186/179 163/179/179
f 171/180/180 185/185/180 186/187/180
f 163/179/181 179/188/181 164/181/181
f 172/169/182 186/187/182 187/189/182
f 164/181/183 180/190/183 165/182/183
f 158/168/184 82/26/184 173/191/184
f 308/28/185 172/169/185 187/189/185
f 166/170/186 180/190/186 181/192/186
f 158/168/187 174/193/187 159/171/187
f 167/172/188 181/192/188 182/194/188
f 159/171/189 175/195/189 160/173/189
f 168/174/190 182/194/190 183/196/190
f 160/173/191 176/197/191 161/175/191
f 169/176/192 183/196/192 184/184/192
f 180/198/193 196/199/193 181/200/193
f 174/193/194 188/201/194 189/202/194
f 181/200/195 197/203/195 182/204/195
f 175/195/196 189/202/196 190/205/196
f 183/206/197 197/203/197 198/207/197
f 175/195/198 191/208/198 176/197/198
f 184/184/199 198/209/199 199/210/199
f 176/197/200 192/211/200 177/183/200
f 185/185/201 199/210/201 200/212/201
f 177/213/202 193/214/202 178/215/202
f 185/185/203 201/216/203 186/187/203
f 179/217/204 193/214/204 194/218/204
f 186/187/205 202/219/205 187/189/205
f 180/198/206 194/218/206 195/220/206
f 173/191/207 82/26/207 188/201/207
f 308/28/208 187/189/208 202/219/208
f 200/212/209 214/221/209 215/222/209
f 192/223/210 208/224/210 193/214/210
f 201/216/211 215/222/211 216/225/211
f 193/214/212 209/226/212 194/218/212
f 202/219/213 216/225/213 217/227/213
f 194/218/214 210/228/214 195/220/214
f 188/201/215 82/26/215 203/229/215
f 308/28/216 202/219/216 217/227/216
f 196/199/217 210/228/217 211/230/217
f 188/201/218 204/231/218 189/202/218
f 197/203/219 211/230/219 212/232/219
f 189/202/220 205/233/220 190/205/220
f 198/207/221 212/232/221 213/234/221
f 190/205/222 206/235/222 191/208/222
f 199/210/223 213/236/223 214/221/223
f 191/208/224 207/237/224 192/211/224
f 203/229/225 219/238/225 204/231/225
f 212/232/226 226/239/226 227/240/226
f 204/231/227 220/241/227 205/233/227
f 213/234/228 227/240/228 228/242/228
f 205/233/229 221/243/229 206/235/229
f 214/221/230 228/244/230 229/245/230
f 206/235/231 222/246/231 207/237/231
f 215/222/232 229/245/232 230/247/232
f 207/248/233 223/249/233 208/224/233
f 216/225/234 230/247/234 231/250/234
f 209/226/235 223/249/235 224/251/235
f 217/227/236 231/250/236 232/252/236
f 210/228/237 224/251/237 225/253/237
f 203/229/238 82/26/238 218/254/238
f 308/28/239 217/227/239 232/252/239
f 210/228/240 226/239/240 211/230/240
f 222/255/241 238/256/241 223/249/241
f 231/250/242 245/257/242 246/258/242
f 224/251/243 238/256/243 239/259/243
f 231/250/244 247/260/244 232/252/244
f 225/253/245 239/259/245 240/261/245
f 218/254/246 82/26/246 233/262/246
f 308/28/247 232/252/247 247/260/247
f 225/253/248 241/263/248 226/239/248
f 219/238/249 233/262/249 234/264/249
f 227/240/250 241/263/250 242/265/250
f 219/238/251 235/266/251 220/241/251
f 228/242/252 242/265/252 243/267/252
f 220/241/253 236/268/253 221/243/253
f 229/245/254 243/269/254 244/270/254
f 221/243/255 237/271/255 222/246/255
f 230/247/256 244/270/256 245/257/256
f 241/263/257 257/272/257 242/265/257
f 235/266/258 249/273/258 250/274/258
f 243/267/259 257/272/259 258/275/259
f 236/268/260 250/274/260 251/276/260
f 243/269/261 259/277/261 244/270/261
f 237/271/262 251/276/262 252/278/262
f 245/257/263 259/277/263 260/279/263
f 237/280/264 253/281/264 238/256/264
f 245/257/265 261/282/265 246/258/265
f 239/259/266 253/281/266 254/283/266
f 246/258/267 262/284/267 247/260/267
f 240/261/268 254/283/268 255/285/268
f 233/262/269 82/26/269 248/286/269
f 308/28/270 247/260/270 262/284/270
f 240/261/271 256/287/271 241/263/271
f 234/264/272 248/286/272 249/273/272
f 261/282/273 275/288/273 276/289/273
f 254/283/274 268/290/274 269/291/274
f 261/282/275 277/292/275 262/284/275
f 255/285/276 269/291/276 270/293/276
f 248/286/277 82/26/277 263/294/277
f 308/28/278 262/284/278 277/292/278
f 255/285/279 271/295/279 256/287/279
f 249/273/280 263/294/280 264/296/280
f 256/287/281 272/297/281 257/272/281
f 249/273/282 265/298/282 250/274/282
f 258/275/283 272/297/283 273/299/283
f 251/276/284 265/298/284 266/300/284
f 258/301/285 274/302/285 259/277/285
f 252/278/286 266/300/286 267/303/286
f 260/279/287 274/302/287 275/288/287
f 252/304/288 268/290/288 253/281/288
f 273/299/289 287/305/289 288/306/289
f 266/300/290 280/307/290 281/308/290
f 273/309/291 289/310/291 274/302/291
f 267/303/292 281/308/292 282/311/292
f 275/288/293 289/310/293 290/312/293
f 268/290/294 282/313/294 283/314/294
f 275/288/295 291/315/295 276/289/295
f 269/291/296 283/314/296 284/316/296
f 276/289/297 292/317/297 277/292/297
f 270/293/298 284/316/298 285/318/298
f 263/294/299 82/26/299 278/319/299
f 308/28/300 277/292/300 292/317/300
f 270/293/301 286/320/301 271/295/301
f 263/294/302 279/321/302 264/296/302
f 271/295/303 287/305/303 272/297/303
f 264/296/304 280/307/304 265/298/304
f 292/317/305 306/322/305 307/323/305
f 285/318/306 299/324/306 300/325/306
f 278/319/307 82/26/307 293/326/307
f 308/28/308 292/317/308 307/323/308
f 285/318/309 301/327/309 286/320/309
f 278/319/310 294/328/310 279/321/310
f 286/320/311 302/329/311 287/305/311
f 280/307/312 294/328/312 295/330/312
f 288/306/313 302/329/313 303/331/313
f 281/308/314 295/330/314 296/332/314
f 288/333/315 304/334/315 289/310/315
f 282/311/316 296/332/316 297/335/316
f 290/312/317 304/334/317 305/336/317
f 282/313/318 298/337/318 283/314/318
f 290/312/319 306/322/319 291/315/319
f 284/316/320 298/337/320 299/324/320
f 296/332/321 311/338/321 312/339/321
f 303/340/322 320/341/322 304/334/322
f 297/335/323 312/339/323 313/342/323
f 305/336/324 320/341/324 321/343/324
f 298/344/325 313/342/325 314/345/325
f 305/336/326 322/346/326 306/322/326
f 299/347/327 314/345/327 315/348/327
f 306/322/328 323/349/328 307/323/328
f 300/350/329 315/348/329 316/351/329
f 293/326/330 82/26/330 309/352/330
f 308/28/331 307/323/331 323/349/331
f 300/350/332 317/353/332 301/354/332
f 294/328/333 309/352/333 310/355/333
f 301/354/334 318/356/334 302/357/334
f 295/330/335 310/355/335 311/338/335
f 302/357/336 319/358/336 303/340/336
f 316/351/337 330/359/337 331/360/337
f 309/352/338 82/26/338 324/361/338
f 308/28/339 323/349/339 338/362/339
f 316/351/340 332/363/340 317/353/340
f 309/352/341 325/364/341 310/355/341
f 317/353/342 333/365/342 318/356/342
f 310/355/343 326/366/343 311/338/343
f 319/358/344 333/365/344 334/367/344
f 311/338/345 327/368/345 312/339/345
f 319/358/346 335/369/346 320/341/346
f 313/342/347 327/368/347 328/370/347
f 321/343/348 335/369/348 336/371/348
f 313/342/349 329/372/349 314/345/349
f 321/343/350 337/373/350 322/346/350
f 315/348/351 329/372/351 330/359/351
f 323/349/352 337/373/352 338/362/352
f 334/367/353 350/374/353 335/369/353
f 328/370/354 342/375/354 343/376/354
f 336/371/355 350/374/355 351/377/355
f 328/370/356 344/378/356 329/372/356
f 336/371/357 352/379/357 337/373/357
f 330/359/358 344/378/358 345/380/358
f 338/362/359 352/379/359 353/381/359
f 331/360/360 345/380/360 346/382/360
f 324/361/361 82/26/361 339/383/361
f 308/28/362 338/362/362 353/381/362
f 331/360/363 347/384/363 332/363/363
f 324/361/364 340/385/364 325/364/364
f 332/363/365 348/386/365 333/365/365
f 326/366/366 340/385/366 341/387/366
f 334/367/367 348/386/367 349/388/367
f 326/366/368 342/375/368 327/368/368
f 339/383/369 82/26/369 354/389/369
f 308/28/370 353/381/370 368/390/370
f 346/382/371 362/391/371 347/384/371
f 339/383/372 355/392/372 340/385/372
f 347/384/373 363/393/373 348/386/373
f 341/387/374 355/392/374 356/394/374
f 349/388/375 363/393/375 364/395/375
f 341/387/376 357/396/376 342/375/376
f 349/388/377 365/397/377 350/374/377
f 343/376/378 357/396/378 358/398/378
f 351/377/379 365/397/379 366/399/379
f 343/376/380 359/400/380 344/378/380
f 351/377/381 367/401/381 352/379/381
f 345/380/382 359/400/382 360/402/382
f 353/381/383 367/401/383 368/390/383
f 346/382/384 360/402/384 361/403/384
f 358/398/385 372/404/385 373/405/385
f 366/399/386 380/406/386 381/407/386
f 358/398/387 374/408/387 359/400/387
f 366/399/388 382/409/388 367/401/388
f 360/402/389 374/408/389 375/410/389
f 367/401/390 383/411/390 368/390/390
f 361/403/391 375/410/391 376/412/391
f 354/389/392 82/26/392 369/413/392
f 308/28/393 368/390/393 383/411/393
f 361/403/394 377/414/394 362/391/394
f 355/392/395 369/413/395 370/415/395
f 362/391/396 378/416/396 363/393/396
f 356/394/397 370/415/397 371/417/397
f 364/395/398 378/416/398 379/418/398
f 356/394/399 372/404/399 357/396/399
f 364/395/400 380/406/400 365/397/400
f 376/412/401 392/419/401 377/414/401
f 370/415/402 384/420/402 385/421/402
f 377/414/403 393/422/403 378/416/403
f 371/417/404 385/421/404 386/423/404
f 379/418/405 393/422/405 394/424/405
f 371/417/406 387/425/406 372/404/406
f 379/418/407 395/426/407 380/406/407
f 373/405/408 387/425/408 388/427/408
f 381/407/409 395/426/409 396/428/409
f 373/405/410 389/429/410 374/408/410
f 381/407/411 397/430/411 382/409/411
f 375/410/412 389/429/412 390/431/412
f 382/409/413 398/432/413 383/411/413
f 376/412/414 390/431/414 391/433/414
f 369/413/415 82/26/415 384/420/415
f 308/28/416 383/411/416 398/432/416
f 396/428/417 410/434/417 411/435/417
f 388/427/418 404/436/418 389/429/418
f 396/428/419 412/437/419 397/430/419
f 390/431/420 404/436/420 405/438/420
f 398/432/421 412/437/421 413/439/421
f 391/433/422 405/438/422 406/440/422
f 384/420/423 82/26/423 399/441/423
f 308/28/424 398/432/424 413/439/424
f 391/433/425 407/442/425 392/419/425
f 384/420/426 400/443/426 385/421/426
f 392/419/427 408/444/427 393/422/427
f 386/423/428 400/443/428 401/445/428
f 394/424/429 408/444/429 409/446/429
f 386/423/430 402/447/430 387/425/430
f 394/424/431 410/434/431 395/426/431
f 388/427/432 402/447/432 403/448/432
f 407/442/433 423/449/433 408/444/433
f 401/445/434 415/450/434 416/451/434
f 409/446/435 423/449/435 424/452/435
f 401/445/436 417/453/436 402/447/436
f 409/446/437 425/454/437 410/434/437
f 403/448/438 417/453/438 418/455/438
f 411/435/439 425/454/439 426/456/439
f 403/448/440 419/457/440 404/436/440
f 411/435/441 427/458/441 412/437/441
f 405/438/442 419/457/442 420/459/442
f 412/437/443 428/460/443 413/439/443
f 406/440/444 420/459/444 421/461/444
f 399/441/445 82/26/445 414/462/445
f 308/28/446 413/439/446 428/460/446
f 406/440/447 422/463/447 407/442/447
f 399/441/448 415/450/448 400/443/448
f 426/456/449 442/464/449 427/458/449
f 420/459/450 434/465/450 435/466/450
f 428/460/451 442/464/451 443/467/451
f 421/461/452 435/466/452 436/468/452
f 414/462/453 82/26/453 429/469/453
f 308/28/454 428/460/454 443/467/454
f 421/461/455 437/470/455 422/463/455
f 414/462/456 430/471/456 415/450/456
f 422/463/457 438/472/457 423/449/457
f 416/451/458 430/471/458 431/473/458
f 424/452/459 438/472/459 439/474/459
f 416/451/460 432/475/460 417/453/460
f 424/452/461 440/476/461 425/454/461
f 418/455/462 432/475/462 433/477/462
f 426/456/463 440/476/463 441/478/463
f 418/455/464 434/465/464 419/457/464
f 431/473/465 445/479/465 446/480/465
f 439/474/466 453/481/466 454/482/466
f 431/473/467 447/483/467 432/475/467
f 439/474/468 455/484/468 440/476/468
f 433/477/469 447/483/469 448/485/469
f 441/478/470 455/484/470 456/486/470
f 433/477/471 449/487/471 434/465/471
f 441/478/472 457/488/472 442/464/472
f 435/466/473 449/487/473 450/489/473
f 442/464/474 458/490/474 443/467/474
f 436/468/475 450/489/475 451/491/475
f 429/469/476 82/26/476 444/492/476
f 308/28/477 443/467/477 458/490/477
f 436/468/478 452/493/478 437/470/478
f 430/471/479 444/492/479 445/479/479
f 437/470/480 453/481/480 438/472/480
f 450/489/481 464/494/481 465/495/481
f 458/490/482 472/496/482 473/497/482
f 451/491/483 465/495/483 466/498/483
f 444/492/484 82/26/484 459/499/484
f 308/28/485 458/490/485 473/497/485
f 451/491/486 467/500/486 452/493/486
f 444/492/487 460/501/487 445/479/487
f 452/493/488 468/502/488 453/481/488
f 446/480/489 460/501/489 461/503/489
f 454/482/490 468/502/490 469/504/490
f 446/480/491 462/505/491 447/483/491
f 454/482/492 470/506/492 455/484/492
f 448/485/493 462/505/493 463/507/493
f 456/486/494 470/506/494 471/508/494
f 448/485/495 464/494/495 449/487/495
f 456/486/496 472/496/496 457/488/496
f 468/502/497 6/6/497 469/504/497
f 462/505/498 1/1/498 476/7/498
f 469/504/499 479/9/499 470/506/499
f 463/507/500 476/7/500 2/12/500
f 471/508/501 479/9/501 480/14/501
f 464/494/502 2/12/502 477/15/502
f 471/508/503 481/18/503 472/496/503
f 465/495/504 477/15/504 3/19/504
f 472/496/505 482/22/505 473/497/505
f 466/498/506 3/19/506 4/24/506
f 459/499/507 82/26/507 474/25/507
f 308/28/508 473/497/508 482/22/508
f 466/498/509 5/30/509 467/500/509
f 459/499/510 475/31/510 460/501/510
f 467/500/511 478/4/511 468/502/511
f 461/503/512 475/31/512 1/1/512
f 1/1/1 475/31/1 8/2/1
f 478/4/2 16/32/2 17/5/2
f 476/7/3 1/1/3 9/3/3
f 479/9/4 6/6/4 17/5/4
f 476/7/5 10/8/5 11/11/5
f 479/9/6 18/10/6 19/13/6
f 477/15/7 2/12/7 11/11/7
f 480/14/8 19/13/8 20/17/8
f 3/19/9 477/15/9 12/16/9
f 481/18/10 20/17/10 21/21/10
f 3/19/513 13/20/513 14/23/513
f 4/24/514 14/23/514 15/29/514
f 475/31/15 474/25/15 7/27/15
f 5/30/16 15/29/16 16/32/16
f 7/27/17 22/46/17 23/33/17
f 15/29/18 30/47/18 31/34/18
f 8/2/19 23/33/19 24/35/19
f 17/5/20 16/32/20 31/34/20
f 9/3/21 24/35/21 25/37/21
f 18/10/22 17/5/22 32/36/22
f 10/8/23 25/37/23 26/39/23
f 19/13/24 18/10/24 33/38/24
f 11/11/25 26/39/25 27/41/25
f 20/17/26 19/13/26 34/40/26
f 13/20/27 12/16/27 27/41/27
f 20/17/28 35/42/28 36/44/28
f 13/20/515 28/43/515 29/45/515
f 14/23/32 29/45/32 30/47/32
f 26/39/33 41/62/33 42/48/33
f 35/42/34 34/40/34 49/49/34
f 28/43/35 27/41/35 42/48/35
f 36/44/36 35/42/36 50/50/36
f 29/45/37 28/43/37 43/51/37
f 29/45/40 44/53/40 45/55/40
f 22/46/41 37/54/41 38/56/41
f 30/47/42 45/55/42 46/57/42
f 23/33/43 38/56/43 39/58/43
f 32/36/44 31/34/44 46/57/44
f 24/35/45 39/58/45 40/60/45
f 33/38/46 32/36/46 47/59/46
f 25/37/47 40/60/47 41/62/47
f 34/40/48 33/38/48 48/61/48
f 45/55/49 60/76/49 61/63/49
f 38/56/50 53/77/50 54/64/50
f 47/59/51 46/57/51 61/63/51
f 39/58/52 54/64/52 55/66/52
f 47/59/53 62/65/53 63/67/53
f 41/62/54 40/60/54 55/66/54
f 49/49/55 48/61/55 63/67/55
f 41/62/56 56/68/56 57/70/56
f 50/50/57 49/49/57 64/69/57
f 43/51/58 42/48/58 57/70/58
f 51/52/59 50/50/59 65/71/59
f 44/53/60 43/51/60 58/72/60
f 44/53/63 59/74/63 60/76/63
f 37/54/516 52/75/516 53/77/516
f 64/69/65 79/92/65 80/78/65
f 58/72/66 57/70/66 72/79/66
f 65/71/67 80/78/67 81/81/67
f 59/74/68 58/72/68 73/80/68
f 59/74/71 74/82/71 75/84/71
f 53/77/72 52/75/72 67/83/72
f 60/76/73 75/84/73 76/86/73
f 54/64/74 53/77/74 68/85/74
f 62/65/75 61/63/75 76/86/75
f 54/64/76 69/87/76 70/89/76
f 62/65/77 77/88/77 78/90/77
f 56/68/78 55/66/78 70/89/78
f 64/69/79 63/67/79 78/90/79
f 56/68/80 71/91/80 72/79/80
f 68/85/81 84/107/81 85/93/81
f 77/88/82 76/86/82 92/94/82
f 69/87/83 85/93/83 86/96/83
f 77/88/84 93/95/84 94/97/84
f 71/91/85 70/89/85 86/96/85
f 79/92/86 78/90/86 94/97/86
f 71/91/87 87/98/87 88/100/87
f 80/78/88 79/92/88 95/99/88
f 73/80/89 72/79/89 88/100/89
f 81/81/90 80/78/90 96/101/90
f 74/82/91 73/80/91 89/102/91
f 74/82/94 90/104/94 91/106/94
f 67/83/95 83/105/95 84/107/95
f 75/84/96 91/106/96 92/94/96
f 89/102/97 88/100/97 103/108/97
f 96/101/98 111/122/98 112/110/98
f 90/104/99 89/102/99 104/109/99
f 90/104/102 105/111/102 106/113/102
f 83/105/103 98/112/103 99/114/103
f 91/106/104 106/113/104 107/115/104
f 85/93/105 84/107/105 99/114/105
f 93/95/106 92/94/106 107/115/106
f 85/93/107 100/116/107 101/118/107
f 93/95/108 108/117/108 109/119/108
f 87/98/109 86/96/109 101/118/109
f 95/99/110 94/97/110 109/119/110
f 87/98/111 102/120/111 103/108/111
f 95/99/112 110/121/112 111/122/112
f 108/117/113 107/115/113 122/123/113
f 100/116/114 115/137/114 116/125/114
f 108/117/115 123/124/115 124/126/115
f 102/120/116 101/118/116 116/125/116
f 110/121/117 109/119/117 124/126/117
f 102/120/118 117/127/118 118/129/118
f 111/122/119 110/121/119 125/128/119
f 104/109/120 103/108/120 118/129/120
f 111/122/121 126/130/121 127/132/121
f 105/111/517 104/109/517 119/131/517
f 105/111/518 120/133/518 121/135/518
f 98/112/126 113/134/126 114/136/126
f 106/113/127 121/135/127 122/123/127
f 99/114/128 114/136/128 115/137/128
f 126/130/129 141/152/129 142/138/129
f 120/133/130 119/131/130 134/139/130
f 120/133/133 135/140/133 136/142/133
f 114/136/134 113/134/134 128/141/134
f 121/135/135 136/142/135 137/144/135
f 115/137/136 114/136/136 129/143/136
f 123/124/137 122/123/137 137/144/137
f 115/137/138 130/145/138 131/147/138
f 123/124/139 138/146/139 139/148/139
f 117/127/140 116/125/140 131/147/140
f 125/128/141 124/126/141 139/148/141
f 117/127/142 132/149/142 133/151/142
f 125/128/143 140/150/143 141/152/143
f 119/131/144 118/129/144 133/151/144
f 138/146/145 153/167/145 154/153/145
f 132/149/146 131/147/146 146/154/146
f 140/150/147 139/148/147 154/153/147
f 132/149/148 147/155/148 148/157/148
f 141/152/149 140/150/149 155/156/149
f 134/139/150 133/151/150 148/157/150
f 141/152/151 156/158/151 157/160/151
f 135/140/152 134/139/152 149/159/152
f 135/140/155 150/161/155 151/163/155
f 128/141/156 143/162/156 144/164/156
f 136/142/157 151/163/157 152/165/157
f 129/143/158 144/164/158 145/166/158
f 138/146/159 137/144/159 152/165/159
f 130/145/160 145/166/160 146/154/160
f 150/161/163 165/182/163 166/170/163
f 143/162/164 158/168/164 159/171/164
f 151/163/165 166/170/165 167/172/165
f 144/164/519 159/171/519 160/173/519
f 153/167/167 152/165/167 167/172/167
f 145/166/168 160/173/168 161/175/168
f 153/167/169 168/174/169 169/176/169
f 147/155/170 146/154/170 161/175/170
f 155/156/171 154/153/171 169/176/171
f 147/155/172 162/177/172 163/179/172
f 156/158/520 155/156/520 170/178/520
f 149/159/174 148/157/174 163/179/174
f 157/160/175 156/158/175 171/180/175
f 150/161/176 149/159/176 164/181/176
f 161/175/521 176/197/521 177/183/521
f 170/178/178 169/176/178 184/184/178
f 162/177/522 177/183/522 178/186/522
f 171/180/180 170/178/180 185/185/180
f 163/179/523 178/186/523 179/188/523
f 172/169/182 171/180/182 186/187/182
f 164/181/524 179/188/524 180/190/524
f 166/170/525 165/182/525 180/190/525
f 158/168/526 173/191/526 174/193/526
f 167/172/527 166/170/527 181/192/527
f 159/171/189 174/193/189 175/195/189
f 168/174/528 167/172/528 182/194/528
f 160/173/529 175/195/529 176/197/529
f 169/176/530 168/174/530 183/196/530
f 180/198/193 195/220/193 196/199/193
f 174/193/531 173/191/531 188/201/531
f 181/200/195 196/199/195 197/203/195
f 175/195/196 174/193/196 189/202/196
f 183/206/197 182/204/197 197/203/197
f 175/195/532 190/205/532 191/208/532
f 184/184/199 183/196/199 198/209/199
f 176/197/200 191/208/200 192/211/200
f 185/185/201 184/184/201 199/210/201
f 177/213/202 192/223/202 193/214/202
f 185/185/203 200/212/203 201/216/203
f 179/217/204 178/215/204 193/214/204
f 186/187/205 201/216/205 202/219/205
f 180/198/206 179/217/206 194/218/206
f 200/212/209 199/210/209 214/221/209
f 192/223/533 207/248/533 208/224/533
f 201/216/211 200/212/211 215/222/211
f 193/214/534 208/224/534 209/226/534
f 202/219/213 201/216/213 216/225/213
f 194/218/535 209/226/535 210/228/535
f 196/199/536 195/220/536 210/228/536
f 188/201/218 203/229/218 204/231/218
f 197/203/537 196/199/537 211/230/537
f 189/202/538 204/231/538 205/233/538
f 198/207/221 197/203/221 212/232/221
f 190/205/222 205/233/222 206/235/222
f 199/210/223 198/209/223 213/236/223
f 191/208/539 206/235/539 207/237/539
f 203/229/225 218/254/225 219/238/225
f 212/232/226 211/230/226 226/239/226
f 204/231/227 219/238/227 220/241/227
f 213/234/228 212/232/228 227/240/228
f 205/233/229 220/241/229 221/243/229
f 214/221/230 213/236/230 228/244/230
f 206/235/231 221/243/231 222/246/231
f 215/222/232 214/221/232 229/245/232
f 207/248/233 222/255/233 223/249/233
f 216/225/234 215/222/234 230/247/234
f 209/226/235 208/224/235 223/249/235
f 217/227/236 216/225/236 231/250/236
f 210/228/237 209/226/237 224/251/237
f 210/228/240 225/253/240 226/239/240
f 222/255/241 237/280/241 238/256/241
f 231/250/242 230/247/242 245/257/242
f 224/251/243 223/249/243 238/256/243
f 231/250/244 246/258/244 247/260/244
f 225/253/245 224/251/245 239/259/245
f 225/253/248 240/261/248 241/263/248
f 219/238/249 218/254/249 233/262/249
f 227/240/250 226/239/250 241/263/250
f 219/238/251 234/264/251 235/266/251
f 228/242/252 227/240/252 242/265/252
f 220/241/253 235/266/253 236/268/253
f 229/245/254 228/244/254 243/269/254
f 221/243/255 236/268/255 237/271/255
f 230/247/256 229/245/256 244/270/256
f 241/263/257 256/287/257 257/272/257
f 235/266/258 234/264/258 249/273/258
f 243/267/259 242/265/259 257/272/259
f 236/268/260 235/266/260 250/274/260
f 243/269/261 258/301/261 259/277/261
f 237/271/262 236/268/262 251/276/262
f 245/257/263 244/270/263 259/277/263
f 237/280/264 252/304/264 253/281/264
f 245/257/265 260/279/265 261/282/265
f 239/259/266 238/256/266 253/281/266
f 246/258/267 261/282/267 262/284/267
f 240/261/268 239/259/268 254/283/268
f 240/261/271 255/285/271 256/287/271
f 234/264/272 233/262/272 248/286/272
f 261/282/273 260/279/273 275/288/273
f 254/283/274 253/281/274 268/290/274
f 261/282/275 276/289/275 277/292/275
f 255/285/276 254/283/276 269/291/276
f 255/285/279 270/293/279 271/295/279
f 249/273/280 248/286/280 263/294/280
f 256/287/281 271/295/281 272/297/281
f 249/273/282 264/296/282 265/298/282
f 258/275/283 257/272/283 272/297/283
f 251/276/284 250/274/284 265/298/284
f 258/301/285 273/309/285 274/302/285
f 252/278/286 251/276/286 266/300/286
f 260/279/287 259/277/287 274/302/287
f 252/304/288 267/509/288 268/290/288
f 273/299/289 272/297/289 287/305/289
f 266/300/290 265/298/290 280/307/290
f 273/309/291 288/333/291 289/310/291
f 267/303/540 266/300/540 281/308/540
f 275/288/293 274/302/293 289/310/293
f 268/290/541 267/509/541 282/313/541
f 275/288/295 290/312/295 291/315/295
f 269/291/542 268/290/542 283/314/542
f 276/289/297 291/315/297 292/317/297
f 270/293/543 269/291/543 284/316/543
f 270/293/544 285/318/544 286/320/544
f 263/294/545 278/319/545 279/321/545
f 271/295/546 286/320/546 287/305/546
f 264/296/547 279/321/547 280/307/547
f 292/317/305 291/315/305 306/322/305
f 285/318/306 284/316/306 299/324/306
f 285/318/309 300/325/309 301/327/309
f 278/319/310 293/326/310 294/328/310
f 286/320/311 301/327/311 302/329/311
f 280/307/312 279/321/312 294/328/312
f 288/306/313 287/305/313 302/329/313
f 281/308/314 280/307/314 295/330/314
f 288/333/315 303/340/315 304/334/315
f 282/311/316 281/308/316 296/332/316
f 290/312/317 289/310/317 304/334/317
f 282/313/318 297/510/318 298/337/318
f 290/312/319 305/336/319 306/322/319
f 284/316/320 283/314/320 298/337/320
f 296/332/548 295/330/548 311/338/548
f 303/340/549 319/358/549 320/341/549
f 297/335/550 296/332/550 312/339/550
f 305/336/324 304/334/324 320/341/324
f 298/344/551 297/335/551 313/342/551
f 305/336/326 321/343/326 322/346/326
f 299/347/552 298/344/552 314/345/552
f 306/322/328 322/346/328 323/349/328
f 300/350/553 299/347/553 315/348/553
f 300/350/554 316/351/554 317/353/554
f 294/328/333 293/326/333 309/352/333
f 301/354/555 317/353/555 318/356/555
f 295/330/335 294/328/335 310/355/335
f 302/357/556 318/356/556 319/358/556
f 316/351/337 315/348/337 330/359/337
f 316/351/340 331/360/340 332/363/340
f 309/352/341 324/361/341 325/364/341
f 317/353/342 332/363/342 333/365/342
f 310/355/557 325/364/557 326/366/557
f 319/358/344 318/356/344 333/365/344
f 311/338/345 326/366/345 327/368/345
f 319/358/346 334/367/346 335/369/346
f 313/342/347 312/339/347 327/368/347
f 321/343/348 320/341/348 335/369/348
f 313/342/349 328/370/349 329/372/349
f 321/343/558 336/371/558 337/373/558
f 315/348/351 314/345/351 329/372/351
f 323/349/352 322/346/352 337/373/352
f 334/367/353 349/388/353 350/374/353
f 328/370/354 327/368/354 342/375/354
f 336/371/355 335/369/355 350/374/355
f 328/370/356 343/376/356 344/378/356
f 336/371/357 351/377/357 352/379/357
f 330/359/358 329/372/358 344/378/358
f 338/362/359 337/373/359 352/379/359
f 331/360/360 330/359/360 345/380/360
f 331/360/363 346/382/363 347/384/363
f 324/361/364 339/383/364 340/385/364
f 332/363/365 347/384/365 348/386/365
f 326/366/366 325/364/366 340/385/366
f 334/367/367 333/365/367 348/386/367
f 326/366/368 341/387/368 342/375/368
f 346/382/371 361/403/371 362/391/371
f 339/383/372 354/389/372 355/392/372
f 347/384/373 362/391/373 363/393/373
f 341/387/374 340/385/374 355/392/374
f 349/388/375 348/386/375 363/393/375
f 341/387/376 356/394/376 357/396/376
f 349/388/377 364/395/377 365/397/377
f 343/376/378 342/375/378 357/396/378
f 351/377/379 350/374/379 365/397/379
f 343/376/380 358/398/380 359/400/380
f 351/377/381 366/399/381 367/401/381
f 345/380/382 344/378/382 359/400/382
f 353/381/383 352/379/383 367/401/383
f 346/382/384 345/380/384 360/402/384
f 358/398/385 357/396/385 372/404/385
f 366/399/386 365/397/386 380/406/386
f 358/398/387 373/405/387 374/408/387
f 366/399/388 381/407/388 382/409/388
f 360/402/389 359/400/389 374/408/389
f 367/401/390 382/409/390 383/411/390
f 361/403/391 360/402/391 375/410/391
f 361/403/394 376/412/394 377/414/394
f 355/392/395 354/389/395 369/413/395
f 362/391/396 377/414/396 378/416/396
f 356/394/397 355/392/397 370/415/397
f 364/395/398 363/393/398 378/416/398
f 356/394/399 371/417/399 372/404/399
f 364/395/400 379/418/400 380/406/400
f 376/412/401 391/433/401 392/419/401
f 370/415/402 369/413/402 384/420/402
f 377/414/403 392/419/403 393/422/403
f 371/417/404 370/415/404 385/421/404
f 379/418/405 378/416/405 393/422/405
f 371/417/406 386/423/406 387/425/406
f 379/418/407 394/424/407 395/426/407
f 373/405/408 372/404/408 387/425/408
f 381/407/409 380/406/409 395/426/409
f 373/405/410 388/427/410 389/429/410
f 381/407/411 396/428/411 397/430/411
f 375/410/412 374/408/412 389/429/412
f 382/409/413 397/430/413 398/432/413
f 376/412/414 375/410/414 390/431/414
f 396/428/417 395/426/417 410/434/417
f 388/427/418 403/448/418 404/436/418
f 396/428/419 411/435/419 412/437/419
f 390/431/420 389/429/420 404/436/420
f 398/432/421 397/430/421 412/437/421
f 391/433/422 390/431/422 405/438/422
f 391/433/425 406/440/425 407/442/425
f 384/420/426 399/441/426 400/443/426
f 392/419/427 407/442/427 408/444/427
f 386/423/428 385/421/428 400/443/428
f 394/424/429 393/422/429 408/444/429
f 386/423/430 401/445/430 402/447/430
f 394/424/431 409/446/431 410/434/431
f 388/427/432 387/425/432 402/447/432
f 407/442/433 422/463/433 423/449/433
f 401/445/434 400/443/434 415/450/434
f 409/446/435 408/444/435 423/449/435
f 401/445/436 416/451/436 417/453/436
f 409/446/437 424/452/437 425/454/437
f 403/448/438 402/447/438 417/453/438
f 411/435/439 410/434/439 425/454/439
f 403/448/440 418/455/440 419/457/440
f 411/435/441 426/456/441 427/458/441
f 405/438/442 404/436/442 419/457/442
f 412/437/443 427/458/443 428/460/443
f 406/440/444 405/438/444 420/459/444
f 406/440/447 421/461/447 422/463/447
f 399/441/448 414/462/448 415/450/448
f 426/456/449 441/478/449 442/464/449
f 420/459/450 419/457/450 434/465/450
f 428/460/451 427/458/451 442/464/451
f 421/461/452 420/459/452 435/466/452
f 421/461/455 436/468/455 437/470/455
f 414/462/456 429/469/456 430/471/456
f 422/463/457 437/470/457 438/472/457
f 416/451/458 415/450/458 430/471/458
f 424/452/459 423/449/459 438/472/459
f 416/451/460 431/473/460 432/475/460
f 424/452/461 439/474/461 440/476/461
f 418/455/462 417/453/462 432/475/462
f 426/456/463 425/454/463 440/476/463
f 418/455/464 433/477/464 434/465/464
f 431/473/559 430/471/559 445/479/559
f 439/474/466 438/472/466 453/481/466
f 431/473/467 446/480/467 447/483/467
f 439/474/468 454/482/468 455/484/468
f 433/477/469 432/475/469 447/483/469
f 441/478/470 440/476/470 455/484/470
f 433/477/471 448/485/471 449/487/471
f 441/478/472 456/486/472 457/488/472
f 435/466/473 434/465/473 449/487/473
f 442/464/474 457/488/474 458/490/474
f 436/468/475 435/466/475 450/489/475
f 436/468/478 451/491/478 452/493/478
f 430/471/479 429/469/479 444/492/479
f 437/470/480 452/493/480 453/481/480
f 450/489/481 449/487/481 464/494/481
f 458/490/482 457/488/482 472/496/482
f 451/491/483 450/489/483 465/495/483
f 451/491/486 466/498/486 467/500/486
f 444/492/487 459/499/487 460/501/487
f 452/493/488 467/500/488 468/502/488
f 446/480/489 445/479/489 460/501/489
f 454/482/490 453/481/490 468/502/490
f 446/480/491 461/503/491 462/505/491
f 454/482/492 469/504/492 470/506/492
f 448/485/493 447/483/493 462/505/493
f 456/486/494 455/484/494 470/506/494
f 448/485/495 463/507/495 464/494/495
f 456/486/496 471/508/496 472/496/496
f 468/502/497 478/4/497 6/6/497
f 462/505/498 461/503/498 1/1/498
f 469/504/499 6/6/499 479/9/499
f 463/507/500 462/505/500 476/7/500
f 471/508/501 470/506/501 479/9/501
f 464/494/502 463/507/502 2/12/502
f 471/508/503 480/14/503 481/18/503
f 465/495/504 464/494/504 477/15/504
f 472/496/505 481/18/505 482/22/505
f 466/498/506 465/495/506 3/19/506
f 466/498/509 4/24/509 5/30/509
f 459/499/510 474/25/510 475/31/510
f 467/500/511 5/30/511 478/4/511
f 461/503/512 460/501/512 475/31/512
f 491/511/560 523/512/560 528/513/560
f 501/514/561 524/515/561 530/516/561
f 506/517/562 492/518/562 505/519/562
f 502/520/563 494/521/563 504/522/563
f 494/521/564 525/523/564 527/524/564
f 484/525/564 527/524/564 524/515/564
f 504/522/563 484/525/563 501/514/563
f 505/519/562 489/526/562 503/527/562
f 488/528/560 528/513/560 526/529/560
f 504/522/563 496/530/563 499/531/563
f 502/520/563 499/531/563 497/532/563
f 522/533/561 495/534/561 521/535/561
f 523/512/561 496/530/561 529/536/561
f 485/537/562 500/538/562 493/539/562
f 488/528/563 499/531/563 491/511/563
f 491/511/563 496/530/563 486/540/563
f 493/539/562 498/541/562 487/542/562
f 505/519/562 498/541/562 500/538/562
f 508/543/565 514/544/565 509/545/565
f 514/544/562 512/546/562 511/547/562
f 510/548/561 512/546/561 507/549/561
f 509/545/564 511/547/564 510/548/564
f 507/549/560 513/550/560 508/543/560
f 505/519/562 495/534/562 506/517/562
f 485/537/561 521/535/561 495/534/561
f 518/551/560 493/539/560 487/542/560
f 516/552/564 492/518/564 483/553/564
f 519/554/564 489/526/564 492/518/564
f 522/533/561 483/553/561 506/517/561
f 520/555/560 485/537/560 493/539/560
f 501/514/561 529/536/561 496/530/561
f 515/556/561 529/536/561 521/535/561
f 526/529/560 520/555/560 518/551/560
f 524/515/564 519/554/564 516/552/564
f 527/524/564 517/557/564 519/554/564
f 530/516/561 516/552/561 522/533/561
f 528/513/560 515/556/560 520/555/560
f 530/516/561 521/535/561 529/536/561
f 534/558/566 535/559/566 533/560/566
f 535/559/561 538/561/561 536/562/561
f 533/560/567 536/562/567 531/563/567
f 532/564/568 541/565/568 538/561/568
f 532/564/569 537/566/569 534/558/569
f 540/567/570 541/568/570 539/569/570
f 536/562/571 540/570/571 531/563/571
f 536/562/561 541/565/561 542/571/561
f 491/511/560 486/540/560 523/512/560
f 501/514/561 484/525/561 524/515/561
f 506/517/562 483/553/562 492/518/562
f 502/520/563 490/572/563 494/521/563
f 494/521/564 490/572/564 525/523/564
f 484/525/564 494/521/564 527/524/564
f 504/522/563 494/521/563 484/525/563
f 505/519/562 492/518/562 489/526/562
f 488/528/560 491/511/560 528/513/560
f 504/522/563 501/514/563 496/530/563
f 502/520/563 504/522/563 499/531/563
f 522/533/561 506/517/561 495/534/561
f 523/512/561 486/540/561 496/530/561
f 485/537/562 495/534/562 500/538/562
f 488/528/563 497/532/563 499/531/563
f 491/511/563 499/531/563 496/530/563
f 493/539/562 500/538/562 498/541/562
f 505/519/562 503/527/562 498/541/562
f 508/543/565 513/550/565 514/544/565
f 514/544/562 513/550/562 512/546/562
f 510/548/561 511/547/561 512/546/561
f 509/545/564 514/544/564 511/547/564
f 507/549/560 512/546/560 513/550/560
f 505/519/562 500/538/562 495/534/562
f 485/537/561 515/556/561 521/535/561
f 518/551/560 520/555/560 493/539/560
f 516/552/564 519/554/564 492/518/564
f 519/554/564 517/557/564 489/526/564
f 522/533/561 516/552/561 483/553/561
f 520/555/560 515/556/560 485/537/560
f 501/514/561 530/516/561 529/536/561
f 515/556/561 523/512/561 529/536/561
f 526/529/560 528/513/560 520/555/560
f 524/515/564 527/524/564 519/554/564
f 527/524/564 525/523/564 517/557/564
f 530/516/561 524/515/561 516/552/561
f 528/513/560 523/512/560 515/556/560
f 540/570/565 532/564/565 531/563/565
f 530/516/561 522/533/561 521/535/561
f 534/558/566 537/566/566 535/559/566
f 535/559/561 537/566/561 538/561/561
f 533/560/567 535/559/567 536/562/567
f 532/564/568 539/573/568 541/565/568
f 532/564/569 538/561/569 537/566/569
f 540/567/570 542/574/570 541/568/570
f 536/562/571 542/571/571 540/570/571
f 536/562/561 538/561/561 541/565/561
f 540/570/565 539/573/565 532/564/565
f 547/511/560 576/513/560 573/512/560
f 555/514/565 578/516/565 574/515/565
f 558/517/562 557/519/562 548/518/562
f 502/520/563 556/522/563 550/521/563
f 550/521/564 575/524/564 525/523/564
f 544/525/564 574/515/564 575/524/564
f 556/522/563 555/514/563 544/525/563
f 557/519/562 503/527/562 489/526/562
f 488/528/560 526/529/560 576/513/560
f 556/522/563 553/531/563 552/530/563
f 502/520/563 497/532/563 553/531/563
f 572/533/565 571/535/565 551/534/565
f 573/512/565 577/536/565 552/530/565
f 545/537/562 549/539/562 554/538/562
f 488/528/563 547/511/563 553/531/563
f 547/511/563 546/540/563 552/530/563
f 549/539/562 487/542/562 498/541/562
f 557/519/562 554/538/562 498/541/562
f 560/575/561 561/576/561 566/577/561
f 566/577/562 563/578/562 564/579/562
f 562/580/565 559/581/565 564/579/565
f 561/576/564 562/580/564 563/578/564
f 559/581/560 560/575/560 565/582/560
f 557/519/562 558/517/562 551/534/562
f 545/537/565 551/534/565 571/535/565
f 518/551/560 487/542/560 549/539/560
f 568/552/564 543/553/564 548/518/564
f 569/554/564 548/518/564 489/526/564
f 572/533/565 558/517/565 543/553/565
f 570/555/560 549/539/560 545/537/560
f 555/514/565 552/530/565 577/536/565
f 567/556/565 571/535/565 577/536/565
f 526/529/560 518/551/560 570/555/560
f 574/515/564 568/552/564 569/554/564
f 575/524/564 569/554/564 517/557/564
f 578/516/565 572/533/565 568/552/565
f 576/513/560 570/555/560 567/556/560
f 578/516/565 577/536/565 571/535/565
f 582/583/566 581/584/566 583/585/566
f 583/585/565 584/586/565 586/587/565
f 581/584/567 579/588/567 584/586/567
f 580/589/568 586/587/568 589/590/568
f 580/589/569 582/583/569 585/591/569
f 588/592/570 587/593/570 589/594/570
f 584/586/571 579/588/571 588/595/571
f 584/586/565 590/596/565 589/590/565
f 547/511/560 573/512/560 546/540/560
f 555/514/565 574/515/565 544/525/565
f 558/517/562 548/518/562 543/553/562
f 502/520/563 550/521/563 490/572/563
f 550/521/564 525/523/564 490/572/564
f 544/525/564 575/524/564 550/521/564
f 556/522/563 544/525/563 550/521/563
f 557/519/562 489/526/562 548/518/562
f 488/528/560 576/513/560 547/511/560
f 556/522/563 552/530/563 555/514/563
f 502/520/563 553/531/563 556/522/563
f 572/533/565 551/534/565 558/517/565
f 573/512/565 552/530/565 546/540/565
f 545/537/562 554/538/562 551/534/562
f 488/528/563 553/531/563 497/532/563
f 547/511/563 552/530/563 553/531/563
f 549/539/562 498/541/562 554/538/562
f 557/519/562 498/541/562 503/527/562
f 560/575/561 566/577/561 565/582/561
f 566/577/562 564/579/562 565/582/562
f 562/580/565 564/579/565 563/578/565
f 561/576/564 563/578/564 566/577/564
f 559/581/560 565/582/560 564/579/560
f 557/519/562 551/534/562 554/538/562
f 545/537/565 571/535/565 567/556/565
f 518/551/560 549/539/560 570/555/560
f 568/552/564 548/518/564 569/554/564
f 569/554/564 489/526/564 517/557/564
f 572/533/565 543/553/565 568/552/565
f 570/555/560 545/537/560 567/556/560
f 555/514/565 577/536/565 578/516/565
f 567/556/565 577/536/565 573/512/565
f 526/529/560 570/555/560 576/513/560
f 574/515/564 569/554/564 575/524/564
f 575/524/564 517/557/564 525/523/564
f 578/516/565 568/552/565 574/515/565
f 576/513/560 567/556/560 573/512/560
f 588/595/561 579/588/561 580/589/561
f 578/516/565 571/535/565 572/533/565
f 582/583/566 583/585/566 585/591/566
f 583/585/565 586/587/565 585/591/565
f 581/584/567 584/586/567 583/585/567
f 580/589/568 589/590/568 587/597/568
f 580/589/569 585/591/569 586/587/569
f 588/592/570 589/594/570 590/598/570
f 584/586/571 588/595/571 590/596/571
f 584/586/565 589/590/565 586/587/565
f 588/595/561 580/589/561 587/597/561
