# Blender 4.1.1
# www.blender.org
mtllib hurdle.mtl
o 円錐.002
v 0.000000 -0.000000 0.350000
v -0.350000 -0.000000 0.000000
v 0.000000 0.350000 0.000000
v 0.350000 -0.000000 0.000000
v 0.000000 -0.000000 -0.350000
v 0.000000 0.000000 0.350000
v -0.350000 0.000000 0.000000
v 0.000000 0.000000 -0.350000
v 0.350000 0.000000 0.000000
v 0.000000 -0.350000 0.000000
v 0.500000 -0.500000 -0.500000
v 0.500000 0.500000 -0.500000
v 0.500000 -0.500000 0.500000
v -0.500000 -0.500000 -0.500000
v 0.350000 -0.350000 -0.500000
v 0.350000 -0.500000 -0.350000
v 0.350000 -0.500000 0.350000
v -0.350000 -0.500000 -0.350000
v 0.350000 -0.350000 -0.350000
v 0.350000 0.350000 -0.350000
v 0.350000 -0.350000 0.350000
v -0.350000 -0.350000 -0.350000
v 0.500000 -0.350000 -0.350000
v 0.500000 0.350000 -0.350000
v 0.500000 -0.350000 0.350000
v 0.500000 0.350000 0.350000
v 0.350000 0.350000 0.350000
v 0.350000 0.350000 0.500000
v -0.350000 0.350000 0.350000
v 0.350000 0.500000 0.350000
v 0.350000 0.500000 -0.350000
v -0.350000 0.500000 0.350000
v 0.500000 0.500000 0.500000
v -0.500000 0.500000 0.500000
v -0.500000 -0.500000 0.500000
v -0.500000 0.500000 -0.500000
v -0.350000 0.500000 -0.350000
v -0.350000 0.350000 -0.350000
v -0.500000 0.350000 -0.350000
v -0.350000 0.350000 -0.500000
v -0.350000 -0.350000 -0.500000
v 0.350000 0.350000 -0.500000
v -0.500000 0.350000 0.350000
v -0.500000 -0.350000 -0.350000
v -0.500000 -0.350000 0.350000
v -0.350000 -0.350000 0.350000
v -0.350000 -0.500000 0.350000
v -0.350000 -0.350000 0.500000
v 0.350000 -0.350000 0.500000
v -0.350000 0.350000 0.500000
vn -0.0000 -1.0000 -0.0000
vn -0.5774 0.5774 0.5774
vn 0.5774 0.5774 0.5774
vn 0.5774 0.5774 -0.5774
vn -0.5774 0.5774 -0.5774
vn -0.0000 -0.0000 -1.0000
vn 1.0000 -0.0000 -0.0000
vn -1.0000 -0.0000 -0.0000
vn -0.0000 -0.0000 1.0000
vn -0.0000 1.0000 -0.0000
vt 0.867650 0.067307
vt 0.867650 0.197394
vt 0.802607 0.132350
vt 0.778799 0.043499
vt 0.778799 0.221201
vt 0.932694 0.132350
vt 0.956501 0.221201
vt 0.956501 0.043499
vt 0.802606 0.397050
vt 0.778799 0.308199
vt 0.867650 0.332007
vt 0.956501 0.308199
vt 0.932693 0.397050
vt 0.867650 0.462094
vt 0.956501 0.485901
vt 0.778799 0.485901
vt 0.507267 0.504909
vt 0.336352 0.648814
vt 0.464250 0.499705
vt 0.230264 0.506457
vt 0.242463 0.470437
vt 0.297805 0.637668
vt 0.187188 0.323502
vt 0.152332 0.315443
vt 0.289813 0.233052
vt 0.349882 0.355953
vt 0.385162 0.361884
vt 0.382293 0.397411
vt 0.278151 0.475867
vt 0.248963 0.437851
vt 0.216723 0.333508
vt 0.257347 0.395817
vt 0.318768 0.353862
vt 0.218673 0.538129
vt 0.343451 0.609464
vt 0.316963 0.493274
vt 0.351213 0.544553
vt 0.097693 0.552488
vt 0.218639 0.538119
vt 0.138421 0.575304
vt 0.374540 0.428028
vt 0.316997 0.493238
vt 0.166913 0.701181
vt 0.138383 0.575343
vt 0.194100 0.651592
vt 0.153850 0.741402
vt 0.249914 0.631707
vt 0.471689 0.785017
vt 0.410772 0.657101
vt 0.483827 0.742110
vt 0.211752 0.099339
vt 0.130742 0.194379
vt 0.092792 0.186584
vt 0.167480 0.258173
vt 0.157881 0.284513
vt 0.625961 0.687439
vt 0.567627 0.679194
vt 0.504828 0.551070
vt 0.379326 0.652656
vt 0.677545 0.693137
vt 0.625961 0.687439
vt 0.222229 0.059298
vt 0.258130 0.224727
vt 0.658618 0.347934
vt 0.614444 0.350566
vt 0.504599 0.595642
vt 0.421854 0.495239
vt 0.513183 0.421655
vt 0.557300 0.347568
vt 0.507629 0.467931
vt 0.458013 0.363604
vt 0.513133 0.421636
vt 0.374571 0.428046
vt 0.510840 0.274988
vt 0.419860 0.361546
vt 0.516899 0.305340
vt 0.458010 0.363562
vt 0.516931 0.305321
vt 0.167505 0.258192
vt 0.224933 0.205583
vt 0.279737 0.283567
vt 0.284334 0.260517
vt 0.224966 0.205554
vt 0.198981 0.156642
vt 0.057755 0.538196
vt 0.249901 0.631642
vt 0.194138 0.651640
vt 0.198905 0.156660
vt 0.130735 0.194421
vt 0.465594 0.830885
vt 0.057755 0.180926
vt 0.506802 0.241735
vt 0.351295 0.544525
vt 0.421857 0.495192
vt 0.557341 0.347500
s 0
usemtl マテリアル.001
f 2/1/1 4/2/1 1/3/1
f 1/3/2 3/4/2 2/1/2
f 4/2/3 3/5/3 1/3/3
f 5/6/4 3/7/4 4/2/4
f 2/1/5 3/8/5 5/6/5
f 6/9/4 10/10/4 7/11/4
f 7/11/3 10/12/3 8/13/3
f 7/11/1 9/14/1 6/9/1
f 8/13/2 10/15/2 9/14/2
f 9/14/5 10/16/5 6/9/5
f 36/17/6 12/18/6 40/19/6
f 23/20/7 11/21/7 24/22/7
f 17/23/1 13/24/1 35/25/1
f 11/21/1 18/26/1 14/27/1
f 11/21/6 41/28/6 15/29/6
f 16/30/8 21/31/8 19/32/8
f 16/30/9 22/33/9 18/26/9
f 24/22/9 19/34/9 23/20/9
f 42/35/8 19/36/8 20/37/8
f 25/38/10 19/39/10 21/40/10
f 15/29/10 22/41/10 19/42/10
f 26/43/6 21/44/6 27/45/6
f 26/43/7 33/46/7 25/38/7
f 26/43/1 20/47/1 24/22/1
f 30/48/8 20/49/8 27/50/8
f 50/51/1 27/52/1 28/53/1
f 28/53/8 21/54/8 49/55/8
f 32/56/6 27/50/6 29/57/6
f 12/18/10 37/58/10 31/59/10
f 34/60/10 30/48/10 32/61/10
f 50/51/9 34/62/9 48/63/9
f 49/55/9 13/24/9 28/53/9
f 34/64/8 36/17/8 43/65/8
f 37/58/9 20/49/9 31/59/9
f 32/56/7 38/66/7 37/58/7
f 42/35/1 38/67/1 40/19/1
f 43/65/1 38/68/1 29/69/1
f 39/70/9 22/71/9 38/72/9
f 40/19/7 22/73/7 41/28/7
f 14/27/8 45/74/8 44/75/8
f 44/75/10 46/76/10 22/77/10
f 43/65/6 46/78/6 45/74/6
f 48/63/10 21/79/10 46/80/10
f 17/23/6 46/81/6 21/31/6
f 18/26/7 46/81/7 47/82/7
f 50/51/7 46/83/7 29/84/7
f 2/1/1 5/6/1 4/2/1
f 7/11/1 8/13/1 9/14/1
f 40/19/6 41/28/6 14/27/6
f 12/18/6 11/21/6 15/29/6
f 12/18/6 15/29/6 42/35/6
f 40/19/6 14/27/6 36/17/6
f 12/18/6 42/35/6 40/19/6
f 23/20/7 25/38/7 13/85/7
f 11/21/7 12/18/7 24/22/7
f 23/20/7 13/85/7 11/21/7
f 17/23/1 16/30/1 11/21/1
f 35/25/1 14/27/1 18/26/1
f 35/25/1 18/26/1 47/82/1
f 17/23/1 11/21/1 13/24/1
f 35/25/1 47/82/1 17/23/1
f 11/21/1 16/30/1 18/26/1
f 11/21/6 14/27/6 41/28/6
f 16/30/8 17/23/8 21/31/8
f 16/30/9 19/32/9 22/33/9
f 24/22/9 20/86/9 19/34/9
f 42/35/8 15/29/8 19/36/8
f 25/38/10 23/20/10 19/39/10
f 15/29/10 41/28/10 22/41/10
f 26/43/6 25/38/6 21/44/6
f 26/43/7 24/22/7 12/18/7
f 33/46/7 13/85/7 25/38/7
f 26/43/7 12/18/7 33/46/7
f 26/43/1 27/87/1 20/47/1
f 30/48/8 31/59/8 20/49/8
f 50/51/1 29/88/1 27/52/1
f 28/53/8 27/89/8 21/54/8
f 32/56/6 30/48/6 27/50/6
f 31/59/10 30/48/10 33/90/10
f 12/18/10 36/17/10 37/58/10
f 31/59/10 33/90/10 12/18/10
f 32/61/10 37/58/10 36/17/10
f 34/60/10 33/90/10 30/48/10
f 32/61/10 36/17/10 34/60/10
f 50/51/9 28/53/9 33/91/9
f 34/62/9 35/25/9 48/63/9
f 50/51/9 33/91/9 34/62/9
f 49/55/9 48/63/9 35/25/9
f 13/24/9 33/91/9 28/53/9
f 49/55/9 35/25/9 13/24/9
f 43/65/8 45/74/8 35/92/8
f 36/17/8 14/27/8 44/75/8
f 36/17/8 44/75/8 39/70/8
f 43/65/8 35/92/8 34/64/8
f 36/17/8 39/70/8 43/65/8
f 37/58/9 38/66/9 20/49/9
f 32/56/7 29/57/7 38/66/7
f 42/35/1 20/93/1 38/67/1
f 43/65/1 39/70/1 38/68/1
f 39/70/9 44/75/9 22/71/9
f 40/19/7 38/94/7 22/73/7
f 14/27/8 35/92/8 45/74/8
f 44/75/10 45/74/10 46/76/10
f 43/65/6 29/95/6 46/78/6
f 48/63/10 49/55/10 21/79/10
f 17/23/6 47/82/6 46/81/6
f 18/26/7 22/33/7 46/81/7
f 50/51/7 48/63/7 46/83/7
