# Blender 4.1.1
# www.blender.org
mtllib block.mtl
o 立方体.001
v 0.500000 -0.250000 -0.350000
v 0.500000 0.250000 -0.350000
v 0.500000 -0.250000 0.350000
v 0.500000 0.250000 0.350000
v -0.500000 -0.250000 -0.350000
v -0.500000 0.250000 -0.350000
v -0.500000 -0.250000 0.350000
v -0.500000 0.250000 0.350000
v 0.500000 -0.500000 -0.500000
v 0.500000 0.500000 -0.500000
v 0.500000 -0.500000 0.500000
v 0.500000 0.500000 0.500000
v -0.500000 -0.500000 -0.500000
v -0.500000 0.500000 -0.500000
v -0.500000 -0.500000 0.500000
v -0.500000 0.500000 0.500000
v 0.500000 0.250000 -0.500000
v 0.500000 0.250000 0.500000
v -0.500000 0.250000 0.500000
v -0.500000 0.250000 -0.500000
v 0.500000 -0.250000 0.500000
v -0.500000 -0.250000 0.500000
v -0.500000 -0.250000 -0.500000
v 0.500000 -0.250000 -0.500000
vn 1.0000 -0.0000 -0.0000
vn -0.0000 -0.0000 1.0000
vn -1.0000 -0.0000 -0.0000
vn -0.0000 -0.0000 -1.0000
vn -0.0000 -1.0000 -0.0000
vn -0.0000 1.0000 -0.0000
vt 0.131396 0.754090
vt 0.049600 0.868604
vt 0.049600 0.754090
vt 0.131396 0.868604
vt 0.294988 0.950400
vt 0.131396 0.950400
vt 0.294988 0.868604
vt 0.376784 0.754090
vt 0.376784 0.868604
vt 0.294988 0.754090
vt 0.131396 0.672294
vt 0.294988 0.672294
vt 0.294988 0.557779
vt 0.131396 0.557779
vt 0.090498 0.254090
vt 0.049600 0.417682
vt 0.049600 0.254090
vt 0.090498 0.417682
vt 0.254090 0.458579
vt 0.090498 0.458579
vt 0.254090 0.417682
vt 0.294988 0.254090
vt 0.294988 0.417682
vt 0.254090 0.254090
vt 0.090498 0.213192
vt 0.254090 0.213192
vt 0.598677 0.049600
vt 0.435086 0.213192
vt 0.435086 0.049600
vt 0.598677 0.254090
vt 0.435086 0.417682
vt 0.435086 0.254090
vt 0.394188 0.417682
vt 0.394188 0.254090
vt 0.598677 0.458579
vt 0.435086 0.458579
vt 0.598677 0.417682
vt 0.639575 0.254090
vt 0.639575 0.417681
vt 0.598677 0.213192
vt 0.254090 0.049600
vt 0.090498 0.049600
s 0
usemtl マテリアル
f 2/1/1 3/2/1 1/3/1
f 4/4/2 7/5/2 3/6/2
f 8/7/3 5/8/3 7/9/3
f 6/10/4 1/11/4 5/12/4
f 7/13/5 1/11/5 3/14/5
f 4/4/6 6/10/6 8/7/6
f 10/15/1 18/16/1 17/17/1
f 12/18/2 19/19/2 18/20/2
f 16/21/3 20/22/3 19/23/3
f 14/24/4 17/25/4 20/26/4
f 15/27/5 9/28/5 11/29/5
f 12/18/6 14/24/6 16/21/6
f 23/30/6 21/31/6 24/32/6
f 24/32/1 11/33/1 9/34/1
f 21/31/2 15/35/2 11/36/2
f 22/37/3 13/38/3 15/39/3
f 23/30/4 9/28/4 13/40/4
f 17/25/5 19/41/5 20/26/5
f 2/1/1 4/4/1 3/2/1
f 4/4/2 8/7/2 7/5/2
f 8/7/3 6/10/3 5/8/3
f 6/10/4 2/1/4 1/11/4
f 7/13/5 5/12/5 1/11/5
f 4/4/6 2/1/6 6/10/6
f 10/15/1 12/18/1 18/16/1
f 12/18/2 16/21/2 19/19/2
f 16/21/3 14/24/3 20/22/3
f 14/24/4 10/15/4 17/25/4
f 15/27/5 13/40/5 9/28/5
f 12/18/6 10/15/6 14/24/6
f 23/30/6 22/37/6 21/31/6
f 24/32/1 21/31/1 11/33/1
f 21/31/2 22/37/2 15/35/2
f 22/37/3 23/30/3 13/38/3
f 23/30/4 24/32/4 9/28/4
f 17/25/5 18/42/5 19/41/5
